<svg xmlns="http://www.w3.org/2000/svg" width="21.976" height="35.161" viewBox="0 0 21.976 35.161">
  <path id="Icon_metro-location" data-name="Icon metro-location" d="M19.343,1.928A10.988,10.988,0,0,0,8.355,12.916c0,10.988,10.988,24.173,10.988,24.173S30.33,23.9,30.33,12.916A10.988,10.988,0,0,0,19.343,1.928Zm0,17.718a6.73,6.73,0,1,1,6.73-6.73A6.73,6.73,0,0,1,19.343,19.646Zm-4.258-6.73a4.258,4.258,0,1,1,4.258,4.258A4.258,4.258,0,0,1,15.085,12.916Z" transform="translate(-8.355 -1.928)" fill="#346da5"/>
</svg>
