<svg xmlns="http://www.w3.org/2000/svg" width="249.996" height="370.262" viewBox="0 0 249.996 370.262">
  <g id="ill_sk1" transform="translate(-1.8 -1.55)">
    <g id="Group_9" data-name="Group 9" transform="translate(1.8 1.55)">
      <path id="Path_285" data-name="Path 285" d="M1.8,277.464,34.683,238.15l52.759-58.166L106,171.8l12.276,16.222,8.915,6.138s32.152,41.213,51.444,45.305c0,0,60.358,24.406,72.635,41.213,0,0,13.738,21.045-99.38,8.184,0,0-45.89-6.723-74.681,1.315C77.212,290.325,6.623,301.87,1.8,277.464Z" transform="translate(-1.8 77.014)" fill="#8f90a0"/>
      <path id="Path_286" data-name="Path 286" d="M22.752,253.458c4.092-.292,8.476-3.069,12.715-3.508,9.061-1.023,11.838,3.215,16.515,10.376,1.9,3.069,6.138,4.969,9.207,6.723,13.3,7.6,27.914-4.238,37.706-12.569,7.892-6.723,16.807-8.184,23.822,1.315,6.43,8.623,20.314,25.868,33.029,22.507,6.284-1.754,9.5-9.5,13.884-13.884,5.992-5.992,14.907-9.353,23.822-6.577,0,0,16.661,7.015,20.607-1.315l-8.915-4.238L144.93,210.637l-35.075-32.006L89.979,177.9s-8.476,1.608-10.084,2.777S66.157,202.6,47.889,217.36c0,0-22.068,17.976-29.814,28.645C13.544,252,18.367,253.6,22.752,253.458Z" transform="translate(4.87 79.829)" fill="#cdcdd7"/>
      <path id="Path_287" data-name="Path 287" d="M17.667,250.912c4.092-.292,8.476-3.069,12.715-3.507,9.061-1.023,13.884,2.338,18.414,9.646a21.4,21.4,0,0,0,7.307,7.6c13.3,7.6,27.914-4.238,37.706-12.569,7.892-6.723,16.807-8.184,23.822,1.315,6.43,8.623,20.314,25.868,33.029,22.507,6.284-1.754,9.5-9.5,13.884-13.884,5.992-5.992,17.1-6.869,26.014-4.092,0,0,10.376,3.8,14.468-4.531V251.35l-65.181-43.113-32.883-32.3L84.748,175.5s-16.076.731-17.684,2.046-6.138,22.8-24.406,37.56C42.8,215.106,5.537,251.788,17.667,250.912Z" transform="translate(4.401 78.722)" fill="#f1f2f8"/>
      <path id="Path_288" data-name="Path 288" d="M55.209,185.83c11.107,6.43,36.244,19.73,31.421,37.121,0,0-8.623,13.884,6.43,25.283a8.986,8.986,0,0,1,3.508,6.577v.146a57.094,57.094,0,0,0,8.769,27.914l1.9,2.923,43.99,4.677,39.46,1.9,26.745-2.484c7.746-1.9,12.861-6.43,8.623-11.546l-4.384-4.531-18.122-11.692-16.222-8.33-.292-2.046-33.614-21.483-37.706-26.891-20.46-20.753.438-5.7L81.954,173.7,60.47,176.915C56.378,177.938,51.555,183.784,55.209,185.83Z" transform="translate(22.249 77.891)" fill="#dddde5"/>
      <path id="Path_289" data-name="Path 289" d="M50.11,181.814s-1.9-10.669,23.676-10.669h.877V154.338l21.922-.438.731,28.06Z" transform="translate(20.479 68.754)" fill="#a25941"/>
      <path id="Path_290" data-name="Path 290" d="M56.084,182.8c5.992-.877,16.515,1.315,23.968,4.677,0,0,8.623,8.038,19.73,9.061,14.907,1.315,50.42,30.4,5.407-7.453L94.521,178.269,64.853,177.1,49.8,178.123h0C50.677,180.754,50.238,183.823,56.084,182.8Z" transform="translate(20.35 79.46)" fill="#b2b2bf"/>
      <path id="Path_291" data-name="Path 291" d="M125.945,228.046c5.992-1.023,8.33-.877,15.784,2.631,0,0,7.161,9.207,13.884,11.692,17.976,7.015,54.8,17.1,25.868.585L160.29,231.115l-2.484-4.384-29.96-4.531L112.5,226.584h0C113.523,229.361,120.1,228.923,125.945,228.046Z" transform="translate(49.284 100.272)" fill="#8f90a0"/>
      <path id="Path_292" data-name="Path 292" d="M49.1,173.238v8.769a.388.388,0,0,0,.438.438h2.631a.388.388,0,0,0,.438-.438h0a2.637,2.637,0,0,1,4.531-1.608c.146.146.146.146.146.292a2.357,2.357,0,0,1,.438,1.315v.438H64.3a.388.388,0,0,0,.438-.438h0a2.637,2.637,0,0,1,4.531-1.608c.146.146.146.146.146.292a2.357,2.357,0,0,1,.438,1.315v.438h6.577a.388.388,0,0,0,.438-.438A2.637,2.637,0,0,1,81.4,180.4c.146.146.146.146.146.292a2.357,2.357,0,0,1,.438,1.315v.438H88.56a.388.388,0,0,0,.438-.438,2.637,2.637,0,0,1,4.531-1.608c.146.146.146.146.146.292a2.357,2.357,0,0,1,.438,1.315v.438h3.361a.467.467,0,0,0,.438-.438h0v-8.769a.467.467,0,0,0-.438-.438H49.246a.64.64,0,0,0-.146.438Z" transform="translate(20.027 77.476)" fill="#fff"/>
      <path id="Path_293" data-name="Path 293" d="M94.241,147.977s1.608,5.407-2.046,5.261c0,0,2.484,5.846-5.261,4.531H64.281s-4.238-3.215.146-10.084l4.531-.585Z" transform="translate(26.183 65.616)" fill="#dddde5"/>
      <path id="Path_294" data-name="Path 294" d="M160.159,235.19s1.754-19-23.822-19h0l.438-18.268L114.561,196.9,113.1,222.622Z" transform="translate(49.561 88.597)" fill="#a25941"/>
      <path id="Path_295" data-name="Path 295" d="M160.559,225.853l-.146.585h0l-1.9,7.892c0,.292-.292.292-.585.292l-2.484-.585c-.292,0-.438-.292-.292-.438h0a2.216,2.216,0,0,0-.438-1.9,2.56,2.56,0,0,0-3.508-.731c-.146,0-.146.146-.292.146a2.826,2.826,0,0,0-.731,1.315v.438l-6.43-1.608c-.292,0-.438-.292-.292-.438a2.216,2.216,0,0,0-.438-1.9,2.56,2.56,0,0,0-3.508-.731c-.146,0-.146.146-.292.146a2.826,2.826,0,0,0-.731,1.315v.438l-6.43-1.608c-.292,0-.438-.292-.292-.438a2.216,2.216,0,0,0-.438-1.9,2.429,2.429,0,0,0-3.361-.877,2.263,2.263,0,0,0-1.169,1.608v.438l-6.43-1.608c-.292,0-.438-.292-.292-.438h0a2.216,2.216,0,0,0-.438-1.9,2.56,2.56,0,0,0-3.508-.731c-.146,0-.146.146-.292.146a2.826,2.826,0,0,0-.731,1.315v.438l-3.215-.731c-.292,0-.292-.292-.292-.438h0l2.046-8.477c0-.292.292-.292.438-.292h0l46.767,11.253C160.705,225.415,160.705,225.707,160.559,225.853Z" transform="translate(48.869 96.765)" fill="#fff"/>
      <path id="Path_296" data-name="Path 296" d="M133.9,200.246,122.2,200.1a2.1,2.1,0,0,0-1.9,2.192h0a1.983,1.983,0,0,0,1.754,2.192l11.692.146" transform="translate(52.878 90.074)" fill="#f9b450"/>
      <path id="Path_297" data-name="Path 297" d="M133.8,205.146,122.1,205a2.1,2.1,0,0,0-1.9,2.192h0a2,2,0,0,0,1.9,2.192l11.692.146" transform="translate(52.832 92.335)" fill="#f9b450"/>
      <path id="Path_298" data-name="Path 298" d="M144.17,192.861s1.315,5.554-2.338,5.115c0,0,2.046,5.992-5.554,4.238l-22.653-1.461s-5.846-1.169-1.023-7.746l-1.9-3.508Z" transform="translate(48.451 85.182)" fill="#dddde5"/>
      <path id="Path_299" data-name="Path 299" d="M150.638,129.658c.292,0,4.969,1.9,7.6-7.453,0,0,4.823-21.63-1.169-20.9,0,0-5.992,6.723-3.361,20.753l-5.407.146.292,4.384,2.192,3.508Z" transform="translate(65.804 44.475)" fill="#454560"/>
      <path id="Path_300" data-name="Path 300" d="M148.038,97.6a66.319,66.319,0,0,1,11.253,5.407s-6.284,6.723-4.384,20.753l-6.284.292L145.7,110.315Z" transform="translate(64.605 42.774)" fill="#69697f"/>
      <path id="Path_301" data-name="Path 301" d="M159.36,100s-9.646,33.468.438,34.637c0,0-2.338,5.261-26.6-4.092L141.238,90.5Z" transform="translate(58.836 39.497)" fill="#8f90a0"/>
      <path id="Path_302" data-name="Path 302" d="M141.361,103.5s.877,20.168,9.938,26.306c0,0-4.238.438-15.2-3.361l.731-21.922Z" transform="translate(60.175 45.496)" fill="#69697f"/>
      <path id="Path_303" data-name="Path 303" d="M103.575,97.021s-36.829-8.33-42.09,4.823l-4.384,70.3,40.921,1.608.877-40.775,29.083,2.777s7.746,28.791,4.092,56.266l.877,42.09,38.29,4.384,2.046-29.522a3.352,3.352,0,0,0,2.192-2.631l.731-27.768s-.292-3.507-2.923-3.361l2.777-51.151Z" transform="translate(23.719 41.306)" fill="#ef795c"/>
      <path id="Path_304" data-name="Path 304" d="M101.9,101.8,138,124.891l3.361,10.523s5.7,10.23,3.069,16.515l-3.946,20.314,12.13-.438,2.777-50.713-13.007-7.161Z" transform="translate(44.392 44.712)" fill="#8f90a0" opacity="0.7"/>
      <path id="Path_305" data-name="Path 305" d="M99.6,100.2s19.291.877,32.737,5.846c0,0,15.93,6.577,24.991,7.161v7.453a1.381,1.381,0,0,1-1.461,1.461h-.438c-5.115-1.315-19.437-5.554-24.7-10.084Z" transform="translate(43.331 43.973)" fill="#fff"/>
      <path id="Path_306" data-name="Path 306" d="M99.6,100.2s19.291.877,32.737,5.846c0,0,15.93,6.577,24.991,7.161l.146,4.092s-20.314-2.046-26.745-7.746Z" transform="translate(43.331 43.973)" fill="#dddde5"/>
      <path id="Path_307" data-name="Path 307" d="M66.4,156.3H78.092a2.1,2.1,0,0,1,1.9,2.192h0a2,2,0,0,1-1.9,2.192H66.4" transform="translate(28.011 69.861)" fill="#f9b450"/>
      <path id="Path_308" data-name="Path 308" d="M66.4,161.1H78.092a2.1,2.1,0,0,1,1.9,2.192h0a2,2,0,0,1-1.9,2.192H66.4" transform="translate(28.011 72.076)" fill="#f9b450"/>
      <path id="Path_309" data-name="Path 309" d="M148.814,35.6s24.845,19.437,16.368,77.458a8.978,8.978,0,0,1-6.284,7.453,52.1,52.1,0,0,1-15.053,1.315l-4.677-45.159L130.4,55.476l.438-15.93Z" transform="translate(57.544 14.163)" fill="#9fbee5"/>
      <path id="Path_310" data-name="Path 310" d="M151.1,47.7s16.661,16.076,5.846,38.29L153,72.837Z" transform="translate(67.096 19.747)" fill="#9fbee5"/>
      <path id="Path_311" data-name="Path 311" d="M72.308,47.884l.292.292-.292-.292L71.723,45.4l-1.023.292A20.915,20.915,0,0,1,72.308,47.884Z" transform="translate(29.995 18.685)" fill="#f9b450"/>
      <path id="Path_312" data-name="Path 312" d="M147.738,36.8s8.623,13.007,5.115,17.83c0,0,12.276,15.2.877,38.29a48.89,48.89,0,0,1-17.83,1.9L151.538,120.1s10.669,2.338,11.692-11.546l.877-18.853A32.585,32.585,0,0,0,158.7,53.753l-2.046-2.777S152.268,40.015,147.738,36.8Z" transform="translate(60.082 14.717)" fill="#8f90a0" opacity="0.6"/>
      <path id="Path_313" data-name="Path 313" d="M139,54.315s11.546-2.046,17.391-7.015" transform="translate(61.513 19.562)" fill="none" stroke="#d1445c" stroke-linecap="round" stroke-linejoin="round" stroke-width="0.83"/>
      <path id="Path_314" data-name="Path 314" d="M139.8,54.915s11.546-2.046,17.391-7.015" transform="translate(61.882 19.839)" fill="none" stroke="#8f90a0" stroke-miterlimit="10" stroke-width="1.24" opacity="0.6"/>
      <path id="Path_315" data-name="Path 315" d="M142.5,77.231s11.692.731,18.707-2.631" transform="translate(63.128 32.16)" fill="none" stroke="#8f90a0" stroke-miterlimit="10" stroke-width="1.24" opacity="0.6"/>
      <path id="Path_316" data-name="Path 316" d="M177.513,130.232l-4.092-11.253s9.353-10.961,1.461-18.414c0,0,11.984-16.807-6.723-26.6,0,0,1.754-18.561-20.022-22.507l10.376-9.792s16.807-32.152-26.6-39.9a16.828,16.828,0,0,0-10.669,1.754l-8.038,4.531-1.754,3.654L123,21.353l11.692,4.238,3.8,10.23-5.115,20.46-12.715,3.8L108.971,58.62s-6.869,4.531-8.915,9.353c0,0-1.754-3.508-4.384-2.484L87.195,75.573l2.923,3.946L86.61,86.388,74.626,75.281a7.1,7.1,0,0,1,0,2.484c-.146,1.754-.877,3.508-1.023,5.407-.146,2.777,1.315,4.823,3.069,6.869,2.484,2.777,4.969,5.115,6.43,8.476,1.9,4.531.585,12.715,5.407,13.738,23.091,4.531,6.723,3.361,4.238,5.407,5.261-1.023-3.069,5.407-3.069,5.407s-3.361,10.669,8.038,17.1l18.414,6.869,14.761,2.923,37.267,9.207C168.16,159.023,185.844,160.046,177.513,130.232Z" transform="translate(31.33 -1.55)" fill="#f9b450"/>
      <path id="Path_317" data-name="Path 317" d="M123.783,26.384l3.8,9.792-3.508,13.738a92.043,92.043,0,0,1,14.176-.585l7.892-8.915S162.512,6.8,121.3,4.9a11.073,11.073,0,0,0-5.261,1.169l-8.915,6.284L100.4,13.376l11.546,9.207Z" transform="translate(43.7 -0.004)" fill="#f3921a"/>
      <path id="Path_318" data-name="Path 318" d="M128.4,38.423s3.8-3.946,12.13-4.823c0,0,8.477-.146,9.207,2.923,0,0-12.715,2.777-15.053,6.138l-6.138-2.631Z" transform="translate(56.621 13.24)" fill="#729cd3"/>
      <path id="Path_319" data-name="Path 319" d="M99.553,76.769A31.983,31.983,0,0,0,84.5,92.114s.146,13.007,6.43,16.368l14.176,5.554,7.6,1.461,36.1,8.184,13.738,4.092S176.718,130.7,174.234,106l-5.992-18.414S179.2,78.961,170,69.9c0,0-7.015,9.061-13.007,8.623,0,0-5.407,17.391-26.16,7.746,0,0-23.968,12.276-30.106-5.992C100.868,80.276,101.6,81.738,99.553,76.769Z" transform="translate(36.363 29.991)" fill="#f9b450"/>
      <path id="Path_320" data-name="Path 320" d="M97.8,42.815s18.268,32.152,33.614,12.13l7.307-13.153L129.368,35.8,111.1,42.815Z" transform="translate(42.5 14.255)" fill="#f3921a"/>
      <path id="Path_321" data-name="Path 321" d="M122.438,56.107s3.654-12.569,16.807-14.907l-9.353-3.8-5.846,7.307L122,52.453Z" transform="translate(53.668 14.993)" fill="#f3921a"/>
      <path id="Path_322" data-name="Path 322" d="M97.8,42.815s18.268,32.152,33.614,12.13l7.307-13.153L129.368,35.8,111.1,42.815Z" transform="translate(42.5 14.255)" fill="#8f90a0" opacity="0.3"/>
      <path id="Path_323" data-name="Path 323" d="M122.438,56.107s3.654-12.569,16.807-14.907l-9.353-3.8-5.846,7.307L122,52.453Z" transform="translate(53.668 14.993)" fill="#8f90a0" opacity="0.3"/>
      <path id="Path_324" data-name="Path 324" d="M134.345,38.091a30.334,30.334,0,0,0-9.353,21.63L117.1,61.475a41.859,41.859,0,0,1,10.961-25.722,1.769,1.769,0,0,1,2.046-.292l5.261,1.9a1.329,1.329,0,0,1,.585,1.169Z" transform="translate(51.407 14.01)" fill="#454560"/>
      <ellipse id="Ellipse_2681" data-name="Ellipse 2681" cx="14.468" cy="17.538" rx="14.468" ry="17.538" transform="translate(139.57 22.726)" fill="#f9cab5"/>
      <path id="Path_325" data-name="Path 325" d="M131.187,18.175s-4.238-15.345-16.953-4.531c0,0-6.43-11.4-15.2-3.946a6.886,6.886,0,0,0,.292,7.453s-16.661,0-4.531,14.03l4.823,10.23S90.559,59.68,104.15,57.634c0,0,6.723,9.938,12.715,1.754,0,0,10.376,6.284,10.084-3.654,0,0,20.022.292,7.892-19.437C134.841,36.443,150.04,19.636,131.187,18.175Zm-6.869,34.783s-9.353-5.992-9.646,2.923c0,0-3.361-5.992-7.892-1.754,0,0,5.115-6.577-4.823-13.153l2.777-5.992s3.946-2.631-1.169-4.823c0,0,9.353,1.461,5.115-7.453,0,0,3.069,6.284,10.084,1.754,0,0-1.461,10.815,8.184,7.161,0,0-8.769,7.746.585,11.692C127.241,43.312,120.08,45.066,124.318,52.958Z" transform="translate(39.073 1.043)" fill="#f1f2f8"/>
      <path id="Path_326" data-name="Path 326" d="M105.269,48.837c.877-2.338,1.608-7.015-5.554-11.838l2.777-5.992s4.384-2.923-.877-5.115c0,0,8.769,1.315,5.407-7.015A6.6,6.6,0,0,1,99.715,16.1c4.238,9.061-5.115,7.453-5.115,7.453,5.115,2.046,1.169,4.823,1.169,4.823L94.6,31.007l3.069,6.43-.292.731a7.5,7.5,0,0,1,.585,9.353C101.323,44.452,104.246,47.375,105.269,48.837Z" transform="translate(41.024 5.164)" fill="#cdcdd7"/>
      <path id="Path_327" data-name="Path 327" d="M114.715,14.873a16.692,16.692,0,0,1,6.43,1.608c-.877-2.338-3.654-8.33-9.646-7.453A15.329,15.329,0,0,1,114.715,14.873Z" transform="translate(48.823 1.86)" fill="#cdcdd7"/>
      <path id="Path_328" data-name="Path 328" d="M102.2,38.8Z" transform="translate(44.531 15.64)" fill="#cdcdd7"/>
      <path id="Path_329" data-name="Path 329" d="M127.16,14.9c5.407,5.115-4.092,15.638-4.092,15.638,12.13,19.73-7.892,19.437-7.892,19.437.292,9.938-10.084,3.654-10.084,3.654A7.33,7.33,0,0,1,101,56.7c2.484,2.338,6.723,4.823,10.669-.585,0,0,10.376,6.284,10.084-3.654,0,0,20.022.292,7.892-19.437C129.791,33.022,144.405,16.946,127.16,14.9Z" transform="translate(43.977 4.611)" fill="#cdcdd7"/>
      <path id="Path_330" data-name="Path 330" d="M67.79,52.376s-9.207-8.915-1.9-17.976l11.253.292L84.6,38.2s1.169,8.33-5.115,13.007l-9.5,3.069Z" transform="translate(26.474 13.609)" fill="#ef795c"/>
      <path id="Path_331" data-name="Path 331" d="M67.79,52.376s-9.207-8.915-1.9-17.976l11.253.292L84.6,38.2s1.169,8.33-5.115,13.007l-9.5,3.069Z" transform="translate(26.474 13.609)" fill="#8f90a0" opacity="0.5"/>
      <path id="Path_332" data-name="Path 332" d="M96.172,99.3c1.461-.438,3.654-3.8,4.384-4.969a17.157,17.157,0,0,0,2.192-3.946A17.647,17.647,0,0,1,91.641,72.852,49.325,49.325,0,0,1,93.98,60.576L96.9,57.945s-6.284-7.6-12.276-7.6l-1.023.146L81.265,44.5,68.258,48.3l-1.9.438,1.9,4.384-1.315,1.754S55.982,78.991,78.488,83.813l1.461.438S82,98.72,95.733,99.451C95.88,99.451,96.026,99.3,96.172,99.3Z" transform="translate(27.029 18.27)" fill="#f3921a"/>
      <path id="Path_333" data-name="Path 333" d="M62.338,21.4l18.414.731.292,22.8L61.9,45.222Z" transform="translate(25.934 7.61)" fill="#454560"/>
      <ellipse id="Ellipse_2682" data-name="Ellipse 2682" cx="4.092" cy="11.984" rx="4.092" ry="11.984" transform="translate(84.18 28.864)" fill="#1b1934"/>
      <path id="Path_334" data-name="Path 334" d="M109.454,25.7,103.9,27.454l6.723,2.338-2.046-1.9,4.238-.585-5.115-.292Z" transform="translate(45.315 9.594)" fill="#69697f"/>
      <path id="Path_335" data-name="Path 335" d="M91.3,24l17.83.438.585,11.984L91.3,36.861Z" transform="translate(39.501 8.81)" fill="#454560"/>
      <ellipse id="Ellipse_2683" data-name="Ellipse 2683" cx="3.069" cy="6.138" rx="3.069" ry="6.138" transform="translate(145.123 33.102)" fill="#454560"/>
      <path id="Path_336" data-name="Path 336" d="M101.776,44.568a1.108,1.108,0,0,1,.585-.292l-.731-22.507L74.3,20.6V46.468l26.6-1.023A2.481,2.481,0,0,1,101.776,44.568Z" transform="translate(31.656 7.241)" fill="#69697f"/>
      <ellipse id="Ellipse_2684" data-name="Ellipse 2684" cx="3.946" cy="11.984" rx="3.946" ry="11.984" transform="translate(128.609 28.864)" fill="#69697f"/>
      <ellipse id="Ellipse_2685" data-name="Ellipse 2685" cx="4.677" cy="12.861" rx="4.677" ry="12.861" transform="translate(101.133 27.841)" fill="#b2b2bf"/>
      <ellipse id="Ellipse_2686" data-name="Ellipse 2686" cx="3.361" cy="10.669" rx="3.361" ry="10.669" transform="translate(102.449 30.033)" fill="#1b1934"/>
      <ellipse id="Ellipse_2687" data-name="Ellipse 2687" cx="4.531" cy="11.984" rx="4.531" ry="11.984" transform="translate(83.596 28.718)" fill="#8f90a0"/>
      <ellipse id="Ellipse_2688" data-name="Ellipse 2688" cx="3.215" cy="9.792" rx="3.215" ry="9.792" transform="translate(84.911 30.91)" fill="#1b1934"/>
      <path id="Path_337" data-name="Path 337" d="M142.587,174.238c-.292,0,.146-.146,0,0h0l.146-.146c.146-.146.292-.438.438-.585a5.568,5.568,0,0,0,.438-1.461,112.647,112.647,0,0,1-14.03-.585L126.8,168.1s-5.261,6.577,14.322,6.869A1.8,1.8,0,0,1,142.587,174.238Z" transform="translate(55.588 75.307)" fill="#8f90a0" opacity="0.5"/>
      <path id="Path_338" data-name="Path 338" d="M143.653,162.607a64.551,64.551,0,0,1,.146-9.207l-15.2.731s-2.192-.146-1.754,2.338l-.146,6.284Z" transform="translate(55.837 68.523)" fill="#8f90a0" opacity="0.5"/>
      <path id="Path_339" data-name="Path 339" d="M146.191,159.294v-5.261s.877-2.777-4.384-2.631l-18.268.877s-2.631-.146-2.192,2.338L121.2,160.9l25.137-.438Z" transform="translate(53.299 67.599)" fill="#ef795c"/>
      <ellipse id="Ellipse_2689" data-name="Ellipse 2689" cx="2.046" cy="1.9" rx="2.046" ry="1.9" transform="translate(187.36 222.946)" fill="#ef795c"/>
      <path id="Path_340" data-name="Path 340" d="M136.96,172.7l2.192,19L114.6,190.384l30.252,5.7,1.754-23.091Z" transform="translate(50.253 77.429)" fill="#8f90a0" opacity="0.7"/>
      <path id="Path_341" data-name="Path 341" d="M118.8,116l4.823,45.159,1.315,44.575" transform="translate(52.191 51.264)" fill="none" stroke="#f5a996" stroke-miterlimit="10" stroke-width="0.41"/>
      <path id="Path_342" data-name="Path 342" d="M91.337,95.6s-24.406,3.361-24.26,12.276L66.2,146.459" transform="translate(27.918 41.851)" fill="none" stroke="#f5a996" stroke-miterlimit="10" stroke-width="0.41"/>
      <circle id="Ellipse_2690" data-name="Ellipse 2690" cx="1.461" cy="1.461" r="1.461" transform="translate(103.91 226.746)" fill="#724850"/>
      <circle id="Ellipse_2691" data-name="Ellipse 2691" cx="1.461" cy="1.461" r="1.461" transform="translate(174.206 290.904)" fill="#724850"/>
      <circle id="Ellipse_2692" data-name="Ellipse 2692" cx="1.461" cy="1.461" r="1.461" transform="translate(174.06 297.919)" fill="#724850"/>
      <circle id="Ellipse_2693" data-name="Ellipse 2693" cx="1.461" cy="1.461" r="1.461" transform="translate(104.056 233.761)" fill="#724850"/>
      <path id="Path_343" data-name="Path 343" d="M85.707,151.3,76.5,152.469l9.353,1.608A3.178,3.178,0,0,0,85.707,151.3Z" transform="translate(32.671 67.554)" fill="#b2b2bf"/>
      <path id="Path_344" data-name="Path 344" d="M129,210.555s15.93,5.115,14.761,14.615l8.915,2.338S151.8,208.363,129,210.555Z" transform="translate(56.898 94.818)" fill="#724850"/>
      <path id="Path_345" data-name="Path 345" d="M136.015,195.44s-5.846-1.169-8.623.292a7.794,7.794,0,0,1-4.092.585s5.261.585,12.569,1.9l.292-.146C136.015,198.07,137.33,196.463,136.015,195.44Z" transform="translate(54.268 87.719)" fill="#b2b2bf"/>
      <path id="Path_346" data-name="Path 346" d="M112.415,192.731l17.1-.292L111.1,190.1Z" transform="translate(48.638 85.459)" fill="#b2b2bf"/>
      <path id="Path_347" data-name="Path 347" d="M63.831,147.9l14.176.438a42.991,42.991,0,0,1-9.5,2.338s-4.092-.146-4.092-1.023c.146-.731-1.315-.292-1.315-.292Z" transform="translate(26.488 65.985)" fill="#b2b2bf"/>
      <path id="Path_348" data-name="Path 348" d="M112.677,219.7c0-.438,2.777-2.192,2.777-2.192,5.846-3.508,12.13-.731,16.953,3.069a9.3,9.3,0,0,1,2.923,2.923,19.058,19.058,0,0,0,4.092,4.969,34.313,34.313,0,0,0,3.654,2.777L146,232.707c0,1.754.146.438.146.438,1.169.585.877.292-.292.292h-1.9c-4.092.146-7.307-.877-11.253-.731l-6.43.146h-.146c-1.608-.146-23.676-2.923-23.822-3.8s8.915-8.184,9.938-8.915l.146-.146Z" transform="translate(44.577 97.364)" fill="#cdcdd7"/>
      <path id="Path_349" data-name="Path 349" d="M106.3,229.456s6.284-13.592,17.1-7.453l3.508,1.9A25.636,25.636,0,0,0,106.3,229.456Z" transform="translate(46.423 99.446)" fill="#f1f2f8"/>
      <path id="Path_350" data-name="Path 350" d="M59.6,37.992s10.084,1.023,15.492-.146l1.754-.146.731,1.9a16.606,16.606,0,0,0,6.577,0s24.114,2.192,27.329-7.746c0,0,11.253.438,14.176-5.554,0,0,3.946,5.7,0,9.207L111.19,35.8s-.438,7.892-4.969,7.307l-25.137.877s-1.754-.292-2.192-1.169l-15.93.292A7.337,7.337,0,0,1,59.6,37.992Z" transform="translate(24.873 9.871)" fill="#8f90a0" opacity="0.58"/>
      <path id="Path_351" data-name="Path 351" d="M96.093,53.95,95.362,48.1s6.723-3.8,4.384-20.022c0,0-4.823-5.407-4.969,2.192,0,0,.146,7.746-1.461,12.13h-.292s1.315-10.523-.585-15.492c0,0-6.577-4.238-4.384,4.823q0,5.48-.438,10.961l-.292-.146s1.023-11.838-2.046-15.492c0,0-4.677-1.461-4.092,2.484l1.461,8.476L82.5,43.866c-.146.585,0,.438,0-.146.292-3.361-1.169-9.353-3.361-9.938,0,0-4.238-.438-1.315,5.846l1.023,5.846s-6.43,15.345,7.307,18.414Z" transform="translate(32.808 9.697)" fill="#ef795c"/>
      <path id="Path_352" data-name="Path 352" d="M65.6,48.738,80.653,44.5a14.307,14.307,0,0,1,2.338,5.992l-15.2,2.923A5.953,5.953,0,0,1,65.6,48.738Z" transform="translate(27.641 18.27)" fill="#ef795c"/>
      <path id="Path_353" data-name="Path 353" d="M65.6,49.2l14.468-5.7s2.777,4.531,2.923,7.307l-15.2,2.923A5.9,5.9,0,0,1,65.6,49.2Z" transform="translate(27.641 17.808)" fill="#8f90a0" opacity="0.5"/>
      <path id="Path_354" data-name="Path 354" d="M82.5,55.861l3.508,4.384,12.276-9.792s-1.023-5.115-4.677-5.554L83.377,55.423" transform="translate(35.44 18.454)" fill="#ef795c"/>
      <path id="Path_355" data-name="Path 355" d="M82.5,55.861l3.508,4.384,12.276-9.792s-1.023-5.115-4.677-5.554L83.377,55.423" transform="translate(35.44 18.454)" fill="#d1445c" opacity="0.5"/>
      <path id="Path_356" data-name="Path 356" d="M89.068,157.323h-.292l-.146-2.631L67,154.4v1.461h1.169c2.923-1.169,11.692.731,11.692.731a8.242,8.242,0,0,0,2.923,1.608h0s6.577,3.654,2.631,8.623c0,0-5.407,10.23-4.823,14.322l9.061.146Z" transform="translate(28.287 68.985)" fill="#724850"/>
      <path id="Path_357" data-name="Path 357" d="M91.407,26.7s4.384.585,3.508,8.038c0,0,.877,8.915-6.284,13.3l.585,6.723L86,59.726,90.531,55.2s1.9,5.261.292,8.33l5.992-4.238s-.877-4.823-4.823-5.7l-.731-5.7s6.869-3.8,4.384-19.73l-1.608-1.608S91.992,25.382,91.407,26.7Z" transform="translate(37.055 9.766)" fill="#8f90a0" opacity="0.5"/>
      <path id="Path_358" data-name="Path 358" d="M107.1,60.153c.292-4.823,2.046-12.13,1.9-16.953" transform="translate(46.792 17.67)" fill="none" stroke="#ffebd0" stroke-miterlimit="10" stroke-width="0.41"/>
      <path id="Path_359" data-name="Path 359" d="M96.682,105.937c-3.946-5.554-1.608-10.376.146-15.638a24.015,24.015,0,0,1,3.508-7.6" transform="translate(40.988 35.898)" fill="none" stroke="#ffebd0" stroke-miterlimit="10" stroke-width="0.62"/>
      <path id="Path_360" data-name="Path 360" d="M140.7,75.408s13.445,3.508,21.63-1.608" transform="translate(62.297 31.791)" fill="none" stroke="#d1445c" stroke-linecap="round" stroke-linejoin="round" stroke-width="0.83"/>
      <path id="Path_361" data-name="Path 361" d="M166.888,88.153s9.353-9.792.146-18.853c0,0-1.023,6.723-11.4,9.792,0,0-5.407,17.391-26.16,7.746,0,0-17.245,8.915-26.16.292a15.483,15.483,0,0,1-3.8-6.284s.731,1.461-1.315-3.654c0,0-4.238,3.361-7.6,1.754,3.508,7.453,14.761,16.515,29.96,21.045,0,0,20.9,9.061,24.991,23.383l2.046.438,13.738,4.092s14.03,2.923,11.692-21.776Z" transform="translate(39.178 29.714)" fill="#f3921a"/>
      <path id="Path_362" data-name="Path 362" d="M166.888,88.153s9.353-9.792.146-18.853c0,0-1.023,6.723-11.4,9.792,0,0-5.407,17.391-26.16,7.746,0,0-17.245,8.915-26.16.292a15.483,15.483,0,0,1-3.8-6.284s.731,1.461-1.315-3.654c0,0-4.238,3.361-7.6,1.754,3.508,7.453,14.761,16.515,29.96,21.045,0,0,20.9,9.061,24.991,23.383l2.046.438,13.738,4.092s14.03,2.923,11.692-21.776Z" transform="translate(39.178 29.714)" fill="#8f90a0" opacity="0.3"/>
      <path id="Path_363" data-name="Path 363" d="M121.4,114.577l-25.283,2.338L89.1,108l2.777,14.615-3.069,12.276L83.4,146,86.76,157.69l-.146,1.023-24.114.731,23.53,3.215,9.353-.146.877-35.806,29.083,2.777Z" transform="translate(26.211 47.573)" fill="#8f90a0" opacity="0.7"/>
      <path id="Path_364" data-name="Path 364" d="M136.069,78.6a15.428,15.428,0,0,1-6.869,5.7c2.777,2.484,14.03,11.546,27.329,11.692l-.585-10.815C155.945,85.03,142.5,85.03,136.069,78.6Z" transform="translate(56.99 34.006)" fill="#454560"/>
      <path id="Path_365" data-name="Path 365" d="M135.469,79.5c-2.046,3.069-4.677,3.946-6.869,4.823,2.777,2.484,13.445,17.83,28.352,13.884l-.877-12.13C156.222,86.077,141.9,85.93,135.469,79.5Z" transform="translate(56.714 34.421)" fill="#8f90a0" opacity="0.4"/>
      <ellipse id="Ellipse_2694" data-name="Ellipse 2694" cx="6.138" cy="6.284" rx="6.138" ry="6.284" transform="translate(178.883 87.469)" fill="#f3921a"/>
      <ellipse id="Ellipse_2695" data-name="Ellipse 2695" cx="5.554" cy="5.407" rx="5.554" ry="5.407" transform="translate(177.714 87.761)" fill="#fff" stroke="#729cd3" stroke-miterlimit="10" stroke-width="0.83"/>
      <path id="Path_366" data-name="Path 366" d="M124.6,69.538l3.654-6.138,3.654,6.138S128.984,73.338,124.6,69.538Z" transform="translate(54.868 26.992)" fill="#9fbee5"/>
      <path id="Path_367" data-name="Path 367" d="M113.784,31.4a7.162,7.162,0,0,1-1.608,2.923,6.861,6.861,0,0,1-8.476.877,5.4,5.4,0,0,0,5.992,2.923C114.515,36.811,113.93,31.111,113.784,31.4Z" transform="translate(45.223 12.221)" fill="#f3a188"/>
      <path id="Path_368" data-name="Path 368" d="M163.1,92.1s5.554,25.868-55.1,14.176l26.745,5.992s20.753,8.184,24.991,3.8C159.882,116.214,170.258,107.445,163.1,92.1Z" transform="translate(47.207 40.235)" fill="#8f90a0" opacity="0.4"/>
      <path id="Path_369" data-name="Path 369" d="M125.492,7.731s14.03,10.523-2.192,38.729l.877,5.115,11.4-11.4s11.4-26.014-10.23-35.075Z" transform="translate(54.268 0.088)" fill="#8f90a0" opacity="0.4"/>
      <path id="Path_370" data-name="Path 370" d="M91.791,77.49A36.436,36.436,0,0,1,94.568,63.9l.292-.292L91.5,59.222c-.146,0,0,0,.731-.438l.585-.438c-3.215-.438-6.43-2.046-7.6-4.823h-.146c-1.023.438-1.023.146-1.169-.877,0-.438-.438-1.169-.438-1.608-.292-.585-.585-1.315-.877-1.9-.292-.292-.877-1.608-1.023-1.754v-.292a13.554,13.554,0,0,0,2.923-8.476H80.538A3.166,3.166,0,0,1,77.322,37.3L63,37.592v.877s11.253,0,13.445,3.215a8.389,8.389,0,0,0,2.338,3.946,4.7,4.7,0,0,1-3.508,3.8,1.808,1.808,0,0,0-.292.438,12.609,12.609,0,0,1,4.092.292,2.112,2.112,0,0,1,1.461,1.023,1.479,1.479,0,0,1,.585,2.046c-.146.146-.146.292-.292.438a3.078,3.078,0,0,1-1.9.731.537.537,0,0,1-.438.146l-1.315.292h.146s10.815.877,9.646,13.884c0,0-6.284,24.7,5.261,33.029l4.531.438c4.092-2.923,6.284-8.769,6.284-8.769A18.3,18.3,0,0,1,91.791,77.49Z" transform="translate(26.442 14.947)" fill="#f3921a" opacity="0.5"/>
      <path id="Path_371" data-name="Path 371" d="M91.791,77.49A36.436,36.436,0,0,1,94.568,63.9l.292-.292L91.5,59.222c-.146,0,0,0,.731-.438l.585-.438c-3.215-.438-6.43-2.046-7.6-4.823h-.146c-1.023.438-1.023.146-1.169-.877,0-.438-.438-1.169-.438-1.608-.292-.585-.585-1.315-.877-1.9-.292-.292-.877-1.608-1.023-1.754v-.292a13.554,13.554,0,0,0,2.923-8.476H80.538A3.166,3.166,0,0,1,77.322,37.3L63,37.592v.877s11.253,0,13.445,3.215a8.389,8.389,0,0,0,2.338,3.946,4.7,4.7,0,0,1-3.508,3.8,1.808,1.808,0,0,0-.292.438,12.609,12.609,0,0,1,4.092.292,2.112,2.112,0,0,1,1.461,1.023,1.479,1.479,0,0,1,.585,2.046c-.146.146-.146.292-.292.438a3.078,3.078,0,0,1-1.9.731.537.537,0,0,1-.438.146l-1.315.292h.146s10.815.877,9.646,13.884c0,0-6.284,24.7,5.261,33.029l4.531.438c4.092-2.923,6.284-8.769,6.284-8.769A18.3,18.3,0,0,1,91.791,77.49Z" transform="translate(26.442 14.947)" fill="#8f90a0" opacity="0.5"/>
      <path id="Path_372" data-name="Path 372" d="M104.7,23.346a8.453,8.453,0,0,1,4.969,2.046l.877-.292s-.292-2.484-5.261-3.8Z" transform="translate(45.685 7.564)" fill="#69697f"/>
      <line id="Line_1" data-name="Line 1" x1="1.608" y2="1.754" transform="translate(118.671 72.269)" fill="none"/>
      <path id="Path_373" data-name="Path 373" d="M109.146,70.3,109,71.469A3.632,3.632,0,0,0,109.146,70.3Z" transform="translate(47.669 30.176)" fill="#fcd9a7"/>
      <path id="Path_374" data-name="Path 374" d="M124.067,65.838c7.307-6.869,13.3-9.792,16.807-11.107l7.746-3.508S131.375,49.177,122.9,62.33l-4.238,5.407S118.221,50.2,98.93,48.3a9.453,9.453,0,0,1-1.9.585l-.146.146L84.9,58.384s23.383-11.692,33.468,11.984a23.176,23.176,0,0,1,1.9,9.938l1.023-9.061s6.43,2.338,7.015,5.7C128.305,77.091,128.744,70.076,124.067,65.838Z" transform="translate(36.548 20.023)" fill="#fcd9a7"/>
      <path id="Path_375" data-name="Path 375" d="M80.03,182.492a.388.388,0,0,0,.438-.438,2.547,2.547,0,0,1,.877-1.754,2.514,2.514,0,0,1,3.508-.146,2.7,2.7,0,0,1,.731,1.754v.438h3.361a.388.388,0,0,0,.438-.438v-8.769a.388.388,0,0,0-.438-.438H67.9a12.974,12.974,0,0,1,5.407,8.33,1.854,1.854,0,0,1,.146.877v.438Z" transform="translate(28.703 77.429)" fill="#f1f2f8"/>
      <path id="Path_376" data-name="Path 376" d="M129.292,102.1l-6.577-1.023a1.59,1.59,0,0,1-1.315-1.608v-.146h0a1.51,1.51,0,0,1,1.754-1.315l6.577,1.023a1.712,1.712,0,0,1,1.315,1.608v.146h0a1.755,1.755,0,0,1-1.754,1.315Z" transform="translate(53.391 42.951)" fill="#fff"/>
      <circle id="Ellipse_2696" data-name="Ellipse 2696" cx="1.608" cy="1.608" r="1.608" transform="translate(186.337 142.566)" fill="#fff"/>
      <path id="Path_377" data-name="Path 377" d="M65.66,186.4s0,11.546-15.784,24.7c0,0-18.268,14.03-21.776,20.753,0,0,18.561-9.207,24.26-13.592l-3.654,14.761a35.271,35.271,0,0,0,16.222-25.137Z" transform="translate(10.336 83.752)" fill="#fff"/>
      <path id="Path_378" data-name="Path 378" d="M120.153,211.022,97.5,194.8l4.531,4.531,18.122,11.984C120.007,211.168,120.153,211.168,120.153,211.022Z" transform="translate(42.362 87.628)" fill="#cdcdd7"/>
      <path id="Path_379" data-name="Path 379" d="M213.47,254.575l-4.384-4.531-18.122-11.692-16.222-8.33v-.438h-.292v.731c-4.092,8.33-14.468,4.531-14.468,4.531-8.915-2.777-20.022-2.046-26.014,4.092-4.384,4.384-7.6,12.13-13.884,13.884-12.715,3.508-26.6-13.738-33.029-22.507A18.6,18.6,0,0,0,81.5,225.2a8.882,8.882,0,0,1,2.484,5.7v.146a57.094,57.094,0,0,0,8.769,27.914l1.9,2.923,43.99,4.677,39.46,1.9,26.745-2.484C212.593,264.221,217.562,259.691,213.47,254.575Z" transform="translate(34.979 101.656)" fill="#cdcdd7"/>
    </g>
  </g>
</svg>
