<svg xmlns="http://www.w3.org/2000/svg" xmlns:xlink="http://www.w3.org/1999/xlink" width="368.027" height="340.262" viewBox="0 0 368.027 340.262">
  <defs>
    <clipPath id="clip-path">
      <path id="Path_655" data-name="Path 655" d="M125.4,145.7A60.7,60.7,0,1,1,64.7,85h0a60.519,60.519,0,0,1,60.7,60.7h0" transform="translate(-4 -85)"/>
    </clipPath>
    <clipPath id="clip-path-2">
      <path id="Path_687" data-name="Path 687" d="M216.627,78.327A60.764,60.764,0,1,1,155.8,17.5h0a60.981,60.981,0,0,1,60.827,60.827" transform="translate(-95.1 -17.5)"/>
    </clipPath>
  </defs>
  <g id="ill_sk3" transform="translate(-4 -2)">
    <path id="Path_588" data-name="Path 588" d="M318.676,129.184a60.71,60.71,0,1,1-56.492-64.653,60.761,60.761,0,0,1,56.492,64.653h0" transform="translate(53.221 17.169)" fill="#cddff8"/>
    <circle id="Ellipse_2697" data-name="Ellipse 2697" cx="60.7" cy="60.7" r="60.7" transform="translate(120.044 22.276)" fill="#cddff8"/>
    <path id="Path_589" data-name="Path 589" d="M100.2,239.952l1.275,33.155a77.635,77.635,0,0,1,31.115,2.423l77.4-.638s25.887,5.483,30.732-4.208L232.821,227.2,121.5,239.7Z" transform="translate(26.475 61.976)" fill="#8c6749"/>
    <path id="Path_590" data-name="Path 590" d="M114.565,238.8l-.255-1.275L99.9,237.4l1.785,32.773s1.275-.638,7.906-.51l-.383-30.222Z" transform="translate(26.392 64.783)" fill="#6d503b"/>
    <path id="Path_591" data-name="Path 591" d="M197.674,264.5l-10.074.128a80.122,80.122,0,0,0,12.37.128C198.567,264.628,197.674,264.5,197.674,264.5Z" transform="translate(50.528 72.241)" fill="#6d503b"/>
    <path id="Path_592" data-name="Path 592" d="M117.652,166.814s-29.457,15.43-8.416,44.5l10.457,2.423,23.209,1.4L132.571,159.8Z" transform="translate(26.876 43.427)" fill="#31261f"/>
    <path id="Path_593" data-name="Path 593" d="M186.935,172.1s18.363,2.423,11.477,21.806l-17.6,22.444-10.074-1.4-2.04-16.96,12.114-24.867Z" transform="translate(45.326 46.812)" fill="#31261f"/>
    <path id="Path_594" data-name="Path 594" d="M98.7,253.239l31.115,10.329a43.911,43.911,0,0,0,3.06,24.229s29.075,9.692,51.136,1.4l26.269-2.04-4.463-33.92,31.5-7.651s3.826-56.619-17.98-61.847c0,0-8.289-5.483-16.2,7.906L190.387,208.1l-1.148-3.188-32.008,14.027-13.007-6.759-13.007-14.665s-19.638-13.135-29.33,17.98L98.7,253.239" transform="translate(26.062 49.71)" fill="#78c6c1"/>
    <path id="Path_595" data-name="Path 595" d="M158.416,232.041s28.31,6.249,36.6-33.538l2.04-11.349s9.692,1.785,10.074-9.437a5.921,5.921,0,0,0-2.678-5.356,9.551,9.551,0,0,0-7.4-1.53l-8.289-24.867-13.9-14.665A62.468,62.468,0,0,1,162.5,143.542c-6.886,4.846-32.135,22.189-33.538,24.229s-10.074,13.135-10.074,13.135-5.356,4.081-4.463,10.712a5.872,5.872,0,0,0,6.631,4.973.469.469,0,0,0,.383-.128l5.228-1.148c.128.128,0,38.894,31.753,36.726" transform="translate(30.361 35.584)" fill="#8c6749"/>
    <path id="Path_596" data-name="Path 596" d="M149.476,175.589s.765-5.866-3.7-6.886-8.289,1.658-11.859.765S129.2,167.3,129.2,167.3a6.364,6.364,0,0,0,4.208,4.591c3.443.893-.893,5.228,5.356,6.249" transform="translate(34.456 45.491)" fill="#3a312c"/>
    <path id="Path_597" data-name="Path 597" d="M180.068,131.928s-5.1,35.833-38.639,50.881l-8.926,2.423-12.114-1.658-3.06-1.275S107,167.123,109.8,150.418C109.677,150.546,161.96,98.39,180.068,131.928Z" transform="translate(28.985 32.661)" fill="#31261f"/>
    <path id="Path_598" data-name="Path 598" d="M167.852,126.9s-9.309-.383-5.228,10.457a36.3,36.3,0,0,0,8.926,6.886s5.483,4.081,5.228,10.457c0,0-1.02,13.262,5.228,18.618,0,0,5.738-3.316,10.457,1.275C192.591,174.466,204.833,128.558,167.852,126.9Z" transform="translate(43.369 34.373)" fill="#31261f"/>
    <path id="Path_599" data-name="Path 599" d="M187.618,236.6s3.443,14.027,6.5,23.974c0,0,1.4,11.222.51,11.987l-9.181-.638-2.55-33.538Z" transform="translate(49.234 64.563)" fill="#6d503b"/>
    <path id="Path_600" data-name="Path 600" d="M172.9,158.889c-.51-.383-4.208-4.718-7.524-5.738s-6.631,1.53-6.376,3.571a3.782,3.782,0,0,0,2.55,2.933,78.166,78.166,0,0,0,10.839,1.148C173.158,160.674,172.9,158.889,172.9,158.889Z" transform="translate(42.654 41.533)" fill="#3a312c"/>
    <path id="Path_601" data-name="Path 601" d="M163.305,188.3l-.765.128c-1.275,1.4-4.846,2.678-13.9,2.04a2.662,2.662,0,0,1-2.04-1.02v2.04c0,.638,1.02,1.275,2.168,1.275,17.215,1.02,14.537-4.591,14.537-4.463" transform="translate(39.244 51.27)" fill="#31261f"/>
    <path id="Path_602" data-name="Path 602" d="M157.738,174.514s-1.275-6.376,3.06-8.289,8.544.765,12.114-.765,4.591-3.06,4.591-3.06-.383,4.081-3.826,5.611,1.4,5.738-4.846,7.651" transform="translate(42.261 44.143)" fill="#3a312c"/>
    <path id="Path_603" data-name="Path 603" d="M157.806,172.9a5.371,5.371,0,0,1,3.7-5.611c4.208-1.658,8.671-1.02,9.309,2.678s-.765,5.228-7.269,5.483S157.806,172.9,157.806,172.9Z" transform="translate(42.321 45.25)" fill="#f4e4d9"/>
    <path id="Path_604" data-name="Path 604" d="M147.785,174.533s.128-3.571-4.081-4.463-8.544,0-8.8,3.443,1.275,4.591,7.524,4.081S147.785,174.533,147.785,174.533Z" transform="translate(36.019 46.165)" fill="#f4e4d9"/>
    <path id="Path_605" data-name="Path 605" d="M168.169,172.26a3.642,3.642,0,0,0-.255-4.591c-2.168-2.168-5.738-1.275-6.5.893a4.664,4.664,0,0,0-.383,3.188A11.349,11.349,0,0,0,168.169,172.26Z" transform="translate(43.18 45.25)" fill="#3a312c"/>
    <path id="Path_606" data-name="Path 606" d="M145.378,174.491a3.415,3.415,0,0,0-.128-3.316c-1.148-1.658-2.168-2.04-4.463-1.53s-2.04,4.081-1.148,5.228A14.584,14.584,0,0,0,145.378,174.491Z" transform="translate(37.151 46.079)" fill="#3a312c"/>
    <path id="Path_607" data-name="Path 607" d="M147.087,280.171s-21.551-5.866-18.235-36.853l-1.02-18.618-2.805,13.517-8.926-7.906,6.249,11.732-4.591,7.524,5.993,2.805,1.913,23.209,10.457,2.678Z" transform="translate(30.851 61.288)" fill="#00a698"/>
    <path id="Path_608" data-name="Path 608" d="M292.14,128.044a38.214,38.214,0,1,1-30.095-44.887h0a38.274,38.274,0,0,1,30.095,44.887" transform="translate(58.461 22.135)" fill="#fff"/>
    <path id="Path_609" data-name="Path 609" d="M231.232,146.519a34.112,34.112,0,0,1,.51-10.2,81.892,81.892,0,0,1,15.94-35.2c5.993-7.651,13.135-13.135,22.826-15.047a36.572,36.572,0,0,0-7.906-2.805c-21.3-4.208-41.572,8.926-45.652,29.84a38.631,38.631,0,0,0,15.175,38.511c-.255-1.785-.638-3.443-.893-5.1" transform="translate(58.415 22.15)" fill="#d1445c"/>
    <path id="Path_610" data-name="Path 610" d="M269.83,86.73h.383a14.672,14.672,0,0,0-3.188-1.53c-37.364,3.7-42.847,44.5-41.062,62.358,4.208,4.591,7.779,6.121,13.39,8.416,12.88-46.29,30.477-69.244,30.477-69.244" transform="translate(61.005 22.897)" fill="#f9b450"/>
    <path id="Path_611" data-name="Path 611" d="M244.7,157.7a38.675,38.675,0,0,0,39.659-30.987A37.934,37.934,0,0,0,266.506,86.8c.638,3.953,7.141,51.391-21.806,70.9" transform="translate(66.242 23.337)" fill="#0770e3"/>
    <path id="Path_612" data-name="Path 612" d="M275.928,117.8l-.128.383h0l.128-.383" transform="translate(74.801 31.869)" fill="#cdcdd7"/>
    <path id="Path_613" data-name="Path 613" d="M281.49,122.8a21.269,21.269,0,0,1-1.02,2.55,38.071,38.071,0,0,1-28.947,21.934c-.765.128-1.658.255-2.423.383A38.271,38.271,0,0,0,281.49,122.8" transform="translate(67.453 33.245)" fill="#a5b3d1"/>
    <path id="Path_614" data-name="Path 614" d="M279.947,124.8A38.634,38.634,0,0,1,251,146.734,38.634,38.634,0,0,0,279.947,124.8" transform="translate(67.976 33.795)" fill="#cdcdd7"/>
    <path id="Path_615" data-name="Path 615" d="M227.8,135.9c4.208,3.826,10.2,6.249,16.323,7.524a25.6,25.6,0,0,0,5.356.638h0a38.692,38.692,0,0,1-5.356-.765c-1.785-.383-3.571-.893-5.356-1.4h0l-.765-.255a34.658,34.658,0,0,1-3.188-1.4,24.183,24.183,0,0,1-6.886-4.336H227.8" transform="translate(61.591 36.85)" fill="#a5b3d1"/>
    <path id="Path_616" data-name="Path 616" d="M233.3,142.235c1.02.51,2.04.893,3.188,1.4-1.148-.51-2.168-1.02-3.188-1.4M262.63,129.1a27.994,27.994,0,0,1-3.188,2.168c-1.148.638-4.718,1.658-5.993,2.3s-3.826,2.678-5.1,3.188a25.257,25.257,0,0,1-9.692,1.913c-.51,1.658-1.02,3.316-1.4,5.1a41.914,41.914,0,0,0,10.839,2.04A43.835,43.835,0,0,0,262.63,129.1" transform="translate(63.105 34.979)" fill="#cdcdd7"/>
    <path id="Path_617" data-name="Path 617" d="M227.6,135.8l.128.128.128.128-.255-.255" transform="translate(61.536 36.822)" fill="#a8374e"/>
    <path id="Path_618" data-name="Path 618" d="M226.4,134.5l1.53,1.53.255.255a29.831,29.831,0,0,0,6.886,4.336c1.02.51,2.04.893,3.188,1.4l.765.255h0c.51-1.785,1.02-3.443,1.4-5.1h-.255A43.267,43.267,0,0,1,226.4,134.5" transform="translate(61.206 36.465)" fill="#c89143"/>
    <path id="Path_619" data-name="Path 619" d="M277.163,94.5c.255,6.886,1.275,14.537-1.4,21.678a50.415,50.415,0,0,1-16.2,22.571A45.513,45.513,0,0,1,244.9,155.582h2.04a31.075,31.075,0,0,0,3.443-.128,15.948,15.948,0,0,0,2.423-.383,38.649,38.649,0,0,0,28.82-21.934,15.2,15.2,0,0,0,1.02-2.55,30.822,30.822,0,0,0,1.658-5.866v-.128h0l.128-.383c1.913-10.712-1.53-21.678-7.269-29.712" transform="translate(66.297 25.457)" fill="#065abf"/>
    <path id="Path_620" data-name="Path 620" d="M254.479,83.71c-1.275,2.04.893,5.611,4.718,8.034s8.8,2.933,10.074.893a1.812,1.812,0,0,0,.255-.765A38.94,38.94,0,0,0,254.862,83.2C254.734,83.328,254.479,83.583,254.479,83.71Z" transform="translate(68.832 22.347)" fill="#fff"/>
    <path id="Path_621" data-name="Path 621" d="M251.582,84.9c-4.081,1.275-21.423-1.148-28.182,22.571l.383,3.443c11.222-21.934,22.571-25.5,29.075-25.5h.765l-.128-.255-1.913-.255" transform="translate(60.38 22.815)" fill="#edb4be"/>
    <path id="Path_622" data-name="Path 622" d="M119.076,192.3s-13.645,9.819-11.859,23.081c0,0,3.953,13.39.383,18.618,0,0,2.678,9.947,6.376,21.551L98.8,250.577l2.805-34.813S105.3,193.193,119.076,192.3Z" transform="translate(26.089 52.372)" fill="#00a698"/>
    <path id="Path_623" data-name="Path 623" d="M181.8,189.351s19.893,6.376,19.128,37.236c0,0-1.275,15.94,2.04,22.189l11.477-3.188s2.3-28.182-5.611-48.713c-2.3-5.993-8.161-12.5-14.41-13.772C189.706,181.955,185.626,182.465,181.8,189.351Z" transform="translate(48.932 49.709)" fill="#00a698"/>
    <path id="Path_624" data-name="Path 624" d="M161.832,214.159c-31.753,2.04-31.5-32.518-31.5-32.518l-5.228,1.148a1.408,1.408,0,0,1-1.02,0h0c-5.993-.255-8.161-5.1-9.054-8.289a12.614,12.614,0,0,0-.51,5.356,6.362,6.362,0,0,0,7.4,5.1h.128l4.846-1.275s-.383,38.639,31.37,36.6c0,0,20.276,4.591,31.5-17.853-11.477,15.94-27.927,11.859-27.927,11.732" transform="translate(30.389 47.473)" fill="#6d503b"/>
    <path id="Path_625" data-name="Path 625" d="M180.8,220.4l7.014,7.4.383,13.262-4.846,1.913Z" transform="translate(48.656 60.105)" fill="#00a698"/>
    <path id="Path_626" data-name="Path 626" d="M151.49,228.25s2.423,9.692,10.712,12.5l15.175,45.907,21.551-1.4,8.416.51-32.263-51.646s-1.4-21.806-5.483-25.632L158.886,189.1s-5.866-.638-.638,9.692l2.04,9.692s-7.269-7.651-7.651,2.423c0,0-6.886-5.1-5.866,1.785,0,0-5.866-1.53-4.846,7.524,0,0,.638,10.712,4.081,6.886l2.04-6.886,3.443,8.034" transform="translate(37.925 51.489)" fill="#a57b58"/>
    <path id="Path_627" data-name="Path 627" d="M142.795,210.038a5.274,5.274,0,0,1-2.423-.638,12.147,12.147,0,0,0-.765,5.228s.638,10.712,4.081,6.886l.128-.51a21.916,21.916,0,0,1-1.4-6.5,27.53,27.53,0,0,1,.383-4.463" transform="translate(37.311 57.078)" fill="#00a698"/>
    <path id="Path_628" data-name="Path 628" d="M140.638,209.528c.383.128.893.255,1.4.383-.51-.128-1.02-.255-1.4-.383M140,209.4h0l.255.128h0L140,209.4" transform="translate(37.428 57.078)" fill="#548a91"/>
    <path id="Path_629" data-name="Path 629" d="M145.048,204.9a3.724,3.724,0,0,0-1.148.255c.765.128,1.53.255,2.423.383.128-.128.128-.255.255-.383a5.481,5.481,0,0,0-1.53-.255" transform="translate(38.501 55.839)" fill="#624837"/>
    <path id="Path_630" data-name="Path 630" d="M145.1,205.2c-.638.51-1.02,1.4-.638,3.443a3.53,3.53,0,0,0-1.148-.128,3.676,3.676,0,0,0-3.316,2.04l.255.128v-.128a.468.468,0,0,0,.383.128c.383.128.893.255,1.4.383l.638.128a3.9,3.9,0,0,1,4.591-2.805,4.284,4.284,0,0,1,.255-2.805c-.893-.128-1.785-.255-2.423-.383" transform="translate(37.428 55.922)" fill="#4c382c"/>
    <path id="Path_631" data-name="Path 631" d="M147.2,205.2c-.128.128-.255.255-.255.383a5.3,5.3,0,0,0-.255,2.805,3.8,3.8,0,0,0-4.591,2.805h.128v.128h0a3.453,3.453,0,0,1,3.571-2.805,3.53,3.53,0,0,1,1.148.128c-.255-1.785,0-2.805.638-3.316l-.383-.128" transform="translate(38.006 55.922)" fill="#735642"/>
    <path id="Path_632" data-name="Path 632" d="M140.2,209.4h0a13.473,13.473,0,0,0,2.423.765v-.128H142.5l-.638-.128a2.907,2.907,0,0,1-1.4-.383.445.445,0,0,0-.255-.128" transform="translate(37.483 57.078)" fill="#007472"/>
    <path id="Path_633" data-name="Path 633" d="M153.45,192.533H150.9a14.235,14.235,0,0,0,1.785,6.121l1.53,7.269a10.613,10.613,0,0,1,3.316,2.423l-2.04-9.692a24.684,24.684,0,0,1-2.04-6.121m.893-2.933a4.192,4.192,0,0,0-2.168.51h1.785a1,1,0,0,1,.51-.51h-.128" transform="translate(40.428 51.629)" fill="#624837"/>
    <path id="Path_634" data-name="Path 634" d="M153.933,190h-1.785A2.727,2.727,0,0,0,151,192.3h2.55a2.472,2.472,0,0,1,.383-2.3" transform="translate(40.455 51.739)" fill="#221b17"/>
    <path id="Path_635" data-name="Path 635" d="M153.82,189.6c-.128.128-.383.255-.51.51a5.175,5.175,0,0,0-.51,2.423,18.232,18.232,0,0,0,2.168,6.249l2.04,9.692a14.7,14.7,0,0,0-3.316-2.423v.128a12.941,12.941,0,0,1,3.443,2.423l-2.04-9.947c-2.55-4.973-2.423-7.524-1.658-8.671l1.02-.383a.569.569,0,0,1-.638,0" transform="translate(40.951 51.629)" fill="#735642"/>
    <path id="Path_636" data-name="Path 636" d="M150.678,202.3c-1.275,0-2.3.893-2.678,3.571.638.255,1.148.51,1.785.765h1.148a6.791,6.791,0,0,1,.765-3.06,2.287,2.287,0,0,1,.638-.893,3.926,3.926,0,0,0-1.658-.383" transform="translate(39.63 55.124)" fill="#624837"/>
    <path id="Path_637" data-name="Path 637" d="M150.448,205.8H149.3a7.118,7.118,0,0,1,1.02.638,1.387,1.387,0,0,0,.128-.638" transform="translate(39.987 56.087)" fill="#4c382c"/>
    <path id="Path_638" data-name="Path 638" d="M148,205.788v.128a19.2,19.2,0,0,1,2.805,1.4v-.128a4.474,4.474,0,0,0-1.02-.638,7.535,7.535,0,0,0-1.785-.765m4.336-3.188a2.287,2.287,0,0,0-.638.893,2.287,2.287,0,0,1,.638-.893h0" transform="translate(39.63 55.206)" fill="#735642"/>
    <path id="Path_639" data-name="Path 639" d="M161.3,233.8c-8.289-2.805-10.712-12.5-10.712-12.5l-3.443-7.906L146,217.353l1.785,3.953S150.208,231,158.5,233.8l6.886,48.33,5.993-1.4,5.356-.765Z" transform="translate(39.079 58.178)" fill="#00a698"/>
    <path id="Path_640" data-name="Path 640" d="M158.158,229.765,156.5,229C157.01,229.255,157.648,229.51,158.158,229.765Z" transform="translate(41.969 62.472)" fill="#8c6749"/>
    <path id="Path_641" data-name="Path 641" d="M168.639,237.276c-1.913-9.309-10.839-7.651-10.839-7.651l15.175,46.29,12.752-1.275C175.015,267.243,168.639,237.276,168.639,237.276Z" transform="translate(42.327 62.612)" fill="#8c6749"/>
    <path id="Path_642" data-name="Path 642" d="M186.811,176.605a2.805,2.805,0,1,1-2.805-2.805h0A2.83,2.83,0,0,1,186.811,176.605Z" transform="translate(48.766 47.28)" fill="#fff"/>
    <path id="Path_643" data-name="Path 643" d="M163.558,249.652c3.7.638,16.45,2.168,21.678-6.5l.255-.383a.466.466,0,0,1,.638-.255.125.125,0,0,1,.128.128l.893,1.148a1.791,1.791,0,0,1,.255,1.785c-1.02,2.423-4.591,8.671-16.2,8.8l-8.416-1.4a1.267,1.267,0,0,1-.893-1.275h0l.255-1.148A1.241,1.241,0,0,1,163.558,249.652Z" transform="translate(43.455 66.176)" fill="#fff"/>
    <path id="Path_644" data-name="Path 644" d="M172.746,248.488a39.034,39.034,0,0,1-9.437-.383.955.955,0,0,0-1.02.638l-.383,1.53a.912.912,0,0,0,.638,1.148h.128l8.544,1.4c1.02,0,1.913-.128,2.933-.128Z" transform="translate(43.448 67.723)" fill="#b2b2bf"/>
    <path id="Path_645" data-name="Path 645" d="M153.37,202.2s-2.55,2.678.383,9.819l-3.443-4.591S149.671,202.073,153.37,202.2Z" transform="translate(40.254 55.096)" fill="#8c6749"/>
    <path id="Path_646" data-name="Path 646" d="M145.755,219.719l.638-6.376L145.5,209.9l2.678,3.7,2.55,8.8-3.571-7.524Z" transform="translate(38.942 57.215)" fill="#6d503b"/>
    <path id="Path_647" data-name="Path 647" d="M147.624,204.905a16.006,16.006,0,0,0,1.148,6.886l-2.933-3.316C145.839,208.6,144.819,204.523,147.624,204.905Z" transform="translate(38.985 55.834)" fill="#8c6749"/>
    <path id="Path_648" data-name="Path 648" d="M143.711,208.2s-1.148,5.228-.255,8.544c0,0,.383,6.121,2.168,5.738l-.255.128a1.373,1.373,0,0,1-1.785-.383l-.255-.255a2.292,2.292,0,0,1-.51-1.148C142.308,218.147,140.4,209.858,143.711,208.2Z" transform="translate(37.925 56.747)" fill="#8c6749"/>
    <path id="Path_649" data-name="Path 649" d="M154.453,189.3a9.668,9.668,0,0,0,1.02,7.269l.383.893,2.3,8.8,2.423,8.289-2.933-3.571-2.678-12.242C154.963,198.609,150.5,191.34,154.453,189.3Z" transform="translate(40.956 51.546)" fill="#8c6749"/>
    <path id="Path_650" data-name="Path 650" d="M125.4,145.7A60.7,60.7,0,1,1,64.7,85h0a60.519,60.519,0,0,1,60.7,60.7h0" transform="translate(0 22.842)" fill="#cddff8"/>
    <g id="Group_15" data-name="Group 15" transform="translate(4 107.842)">
      <g id="Group_14" data-name="Group 14" clip-path="url(#clip-path)">
        <path id="Path_651" data-name="Path 651" d="M45.3,158l24.739-38L83.3,122.678l25.122,53.559s-16.96,16.578-27.289,20.148c-.128.128-33.41-35.068-35.833-38.384" transform="translate(7.366 -75.367)" fill="#69697f"/>
        <path id="Path_652" data-name="Path 652" d="M71.537,105.6,57,138.5l10.584-6.249,5.483,8.544,4.718-8.289,9.054,7.4-15.3-34.3" transform="translate(10.586 -79.33)" fill="#fff"/>
        <path id="Path_653" data-name="Path 653" d="M7.7,183.288,43.278,119.4l17.853,3.571,32.39,73.707s-35.451.255-49.35,4.973c0,.128-33.028-14.155-36.471-18.363" transform="translate(-2.982 -75.533)" fill="#b2b2bf"/>
        <path id="Path_654" data-name="Path 654" d="M44.856,100,25.6,145.525l11.987-10.457,7.269,11.477,6.886-10.712L66.279,149.35,44.856,100" transform="translate(1.944 -80.871)" fill="#fff"/>
      </g>
    </g>
    <path id="Path_656" data-name="Path 656" d="M91.683,158.4l-.383.638.383-.638h0" transform="translate(24.025 43.042)" fill="#b2b2bf"/>
    <path id="Path_657" data-name="Path 657" d="M79.6,131.8l7.014,15.047-6.376-14.41L79.6,131.8" transform="translate(20.806 35.722)" fill="#8f9cba"/>
    <path id="Path_658" data-name="Path 658" d="M73.63,126.8h0L72.1,149.754l9.309,5.993,7.141,21.806,8.034-9.692.383-.638-8.289-18.873L81.664,133.3l-8.034-6.5" transform="translate(18.742 34.346)" fill="#49495f"/>
    <path id="Path_659" data-name="Path 659" d="M68.483,105.6h0L68.1,131.1l4.463-3.953,2.168,5.356,8.034,6.5.638.638L68.483,105.6" transform="translate(17.641 28.511)" fill="#b2b2bf"/>
    <path id="Path_660" data-name="Path 660" d="M77.722,176a60.762,60.762,0,0,1-24.994,5.356c-1.785,0-3.571-.128-5.228-.255h0a50.7,50.7,0,0,0,5.356.255c6.376,0,17.088-.765,24.867-5.356" transform="translate(11.971 47.886)" fill="#cdcdd7"/>
    <path id="Path_661" data-name="Path 661" d="M56.3,137.6l10.967,24.739L56.938,138.11l-.638-.51" transform="translate(14.393 37.318)" fill="#54546b"/>
    <path id="Path_662" data-name="Path 662" d="M47.256,128.1l5.356,21.934L43.048,160.49,57.2,174.773l-8.161,19.511c1.785.128,3.571.255,5.228.255a59.9,59.9,0,0,0,24.994-5.356,11.641,11.641,0,0,0,1.658-1.02L71.1,165.081,60.263,140.214,47.256,128.1m0,.128-4.336,6.631-1.02,5.356,5.356-11.987" transform="translate(10.43 34.703)" fill="#8f8fa1"/>
    <path id="Path_663" data-name="Path 663" d="M40.7,100l5.993,24.229L43.25,142.592l4.336-6.759,13.007,12.114.638.51L40.7,100" transform="translate(10.1 26.97)" fill="#cdcdd7"/>
    <circle id="Ellipse_2698" data-name="Ellipse 2698" cx="60.7" cy="60.7" r="60.7" transform="translate(120.171 21.893)" fill="#ffe7e0"/>
    <circle id="Ellipse_2699" data-name="Ellipse 2699" cx="60.7" cy="60.7" r="60.7" transform="translate(120.171 21.893)" fill="#cddff8"/>
    <g id="Group_17" data-name="Group 17" transform="translate(120.171 21.766)">
      <g id="Group_16" data-name="Group 16" clip-path="url(#clip-path-2)">
        <path id="Path_664" data-name="Path 664" d="M143.743,34.4l3.826.255,1.275,20.531,3.571,1.02.893,2.678,5.483,1.4.383,3.953,4.846,1.4-.383,6.121,4.846,2.933-.383,7.4,4.846,3.06v19.893l4.846,3.7v38l-28.947-2.04L140.3,77.757Z" transform="translate(-82.661 -12.849)" fill="#454560"/>
        <path id="Path_665" data-name="Path 665" d="M119.365,147.128l-.765-43.1,2.678-.383.383-21.168,5.1-1.4.255-9.692,3.061-.638-.383-4.081,3.06-.638,1.02-4.336,3.7-.383V57.864l3.7-.255L144.487,34.4h5.993l1.148,23.464,2.678.383.255,2.933,3.443.765-.383,4.081,2.805.255-.383,8.416,3.06.383.255,22.571,3.443.638-1.785,48.84Z" transform="translate(-88.633 -12.849)" fill="#f9b450"/>
        <path id="Path_666" data-name="Path 666" d="M134.7,64.055l.638,75.11,3.443.383V63.8Z" transform="translate(-84.202 -4.758)" fill="#8f90a0"/>
        <path id="Path_667" data-name="Path 667" d="M139.6,63.555l.638,75.747,2.423-.383.255-75.62Z" transform="translate(-82.853 -4.896)" fill="#8f90a0"/>
        <path id="Path_668" data-name="Path 668" d="M131.52,70.5l3.571,1.02-.255,19.893,2.04,1.275-.51,45.015h-4.081l.765-44.5-2.55-1.53Z" transform="translate(-85.358 -2.914)" fill="#454560"/>
        <path id="Path_669" data-name="Path 669" d="M124.2,91.12l.51,40.934,2.805.255V90.1Z" transform="translate(-87.092 2.48)" fill="#8f90a0"/>
        <path id="Path_670" data-name="Path 670" d="M128.2,89.9l.51,42.209,1.913-.255.255-41.7Z" transform="translate(-85.991 2.425)" fill="#8f90a0"/>
        <path id="Path_671" data-name="Path 671" d="M120.9,90.7l1.658.255.383,41.189H120.9Z" transform="translate(-88 2.645)" fill="#8f90a0"/>
        <path id="Path_672" data-name="Path 672" d="M124.7,74.583l.383,16.45,2.168.128V74.2Z" transform="translate(-86.954 -1.896)" fill="#8f90a0"/>
        <path id="Path_673" data-name="Path 673" d="M127.8,74.1l.383,16.96,1.658-.128.128-16.705Z" transform="translate(-86.101 -1.923)" fill="#8f90a0"/>
        <path id="Path_674" data-name="Path 674" d="M122.2,74.4l1.275.128.255,16.578H122.2Z" transform="translate(-87.642 -1.841)" fill="#8f90a0"/>
        <path id="Path_675" data-name="Path 675" d="M128.8,64.628l.383,5.611h2.168V64.5Z" transform="translate(-85.826 -4.565)" fill="#8f90a0"/>
        <path id="Path_676" data-name="Path 676" d="M132,64.1l.383,5.738h1.53l.255-5.738Z" transform="translate(-84.945 -4.675)" fill="#8f90a0"/>
        <path id="Path_677" data-name="Path 677" d="M126.2,65h1.4l.255,5.611H126.2Z" transform="translate(-86.541 -4.428)" fill="#8f90a0"/>
        <path id="Path_678" data-name="Path 678" d="M144.5,63.328l.383,5.611h2.168V63.2Z" transform="translate(-81.505 -4.923)" fill="#8f90a0"/>
        <path id="Path_679" data-name="Path 679" d="M147.7,62.9l.383,5.738h1.53l.255-5.738Z" transform="translate(-80.624 -5.006)" fill="#8f90a0"/>
        <path id="Path_680" data-name="Path 680" d="M147.1,70.583l.383,16.45,2.168.128V70.2Z" transform="translate(-80.789 -2.997)" fill="#8f90a0"/>
        <path id="Path_681" data-name="Path 681" d="M150.2,70.1l.383,16.96h1.53l.255-16.833Z" transform="translate(-79.936 -3.024)" fill="#8f90a0"/>
        <path id="Path_682" data-name="Path 682" d="M144.5,70.4l1.275.128.383,16.578H144.5Z" transform="translate(-81.505 -2.942)" fill="#8f90a0"/>
        <path id="Path_683" data-name="Path 683" d="M146.7,88.62l.51,43.612,2.805.255V87.6Z" transform="translate(-80.899 1.792)" fill="#8f90a0"/>
        <path id="Path_684" data-name="Path 684" d="M150.7,87.3l.51,45.015,2.04-.255.255-44.377Z" transform="translate(-79.799 1.709)" fill="#8f90a0"/>
        <path id="Path_685" data-name="Path 685" d="M143.5,88.2l1.658.255.383,43.867H143.5Z" transform="translate(-81.78 1.957)" fill="#8f90a0"/>
        <path id="Path_686" data-name="Path 686" d="M141.258,34.268,139.6,57.732l3.316-.128-.51-23.081C142.405,33.885,141.768,33.758,141.258,34.268Z" transform="translate(-82.853 -12.972)" fill="#8f90a0"/>
      </g>
    </g>
    <path id="Path_688" data-name="Path 688" d="M160.115,181.941s-3.7-4.463-5.228-5.228-.638,6.249-.255,7.651S160.115,181.941,160.115,181.941Z" transform="translate(41.287 48.066)" fill="#a57b58"/>
    <path id="Path_689" data-name="Path 689" d="M145.9,183.761h7.524c3.7,0,8.161-3.06,8.926-3.06s-.765,7.524-6.759,8.289S145.9,183.761,145.9,183.761Z" transform="translate(39.052 49.179)" fill="#6d503b"/>
    <path id="Path_690" data-name="Path 690" d="M123.111,184.405a2.805,2.805,0,1,1-2.805-2.805h0A2.83,2.83,0,0,1,123.111,184.405Z" transform="translate(31.236 49.427)" fill="#fff"/>
    <path id="Path_691" data-name="Path 691" d="M140.15,56.2h0c-.128,0-.255-.128-.255-.383.638-11.349-.893-14.027-1.53-14.537-.255-.255-.383-.255-.383-.128-.128,0-.383,0-.383-.255h0c0-.128,0-.383.255-.383h0a.789.789,0,0,1,.893.255c1.148.893,2.423,4.208,1.785,15.175,0,.128-.255.255-.383.255Z" transform="translate(36.767 10.585)" fill="#8f90a0"/>
    <path id="Path_692" data-name="Path 692" d="M142.382,56.185a.274.274,0,0,1-.255-.255c-.51-10.839.638-14.282,1.785-15.175a1.214,1.214,0,0,1,.893-.255c.128,0,.255.255.255.383h0c0,.128-.255.255-.383.255a.987.987,0,0,0-.383.128c-.638.638-2.168,3.188-1.53,14.537q0,.191-.383.383Z" transform="translate(37.979 10.595)" fill="#8f90a0"/>
    <path id="Path_693" data-name="Path 693" d="M139.678,54.754h0c-.128,0-.255-.128-.255-.383.51-5.356-.51-7.014-1.148-7.651a1.158,1.158,0,0,0-.893-.383c-.128,0-.383-.128-.383-.255h0c0-.128.128-.383.255-.383a1.918,1.918,0,0,1,1.4.51c1.275,1.148,1.658,3.953,1.275,8.161.127.255,0,.383-.255.383Z" transform="translate(36.602 12.026)" fill="#8f90a0"/>
    <path id="Path_694" data-name="Path 694" d="M142.859,54.726a.274.274,0,0,1-.255-.255c-.128-4.591.51-7.524,1.53-8.416a.937.937,0,0,1,.765-.255c.128,0,.255.255.255.383s-.128.255-.383.255a.445.445,0,0,0-.255.128c-.51.51-1.275,2.168-1.275,7.906-.128,0-.255.128-.383.255Z" transform="translate(38.14 12.054)" fill="#8f90a0"/>
    <path id="Path_695" data-name="Path 695" d="M137.8,36.331c0-3.316,1.913-6.631,5.228-6.631a7.131,7.131,0,0,1,6.631,6.631" transform="translate(36.822 7.623)" fill="#454560"/>
    <path id="Path_696" data-name="Path 696" d="M144.3,37.035H142V4.9h1.02Z" transform="translate(37.978 0.798)" fill="#69697f"/>
    <path id="Path_697" data-name="Path 697" d="M142.74,37.035H140.7L141.72,4.9h1.02Z" transform="translate(37.621 0.798)" fill="#f9b450"/>
    <path id="Path_698" data-name="Path 698" d="M144.581,4.04a2.04,2.04,0,0,1-4.081,0A2.014,2.014,0,0,1,142.54,2h0A2.191,2.191,0,0,1,144.581,4.04Z" transform="translate(37.566)" fill="#f9b450"/>
  </g>
</svg>
