<svg xmlns="http://www.w3.org/2000/svg" xmlns:xlink="http://www.w3.org/1999/xlink" width="282.479" height="318.359" viewBox="0 0 282.479 318.359">
  <defs>
    <clipPath id="clip-path">
      <path id="Path_457" data-name="Path 457" d="M110.678,169.814l.9,7.477a7.535,7.535,0,0,1,4.9,8.895s9.8,12.891,5.285,18.821c0,0-.773,4.125-11.6,2.965l-9.54-1.8-1.289-16.114L97.4,169.814l10.829-5.414,2.449,5.414" transform="translate(-97.4 -164.4)"/>
    </clipPath>
    <clipPath id="clip-path-2">
      <path id="Path_517" data-name="Path 517" d="M69.821,155.18l-11.473,6.188s3.352,20.5-11.86,14.7l-14.825-4.641L2.141,167.556s-1.934-8.121,6.7-7.09l4.254,2.449,33.388-10.442L67.5,141l2.32,14.18" transform="translate(-1.957 -141)"/>
    </clipPath>
  </defs>
  <g id="ill_sk2" transform="translate(-1.957 -2.107)">
    <path id="Path_380" data-name="Path 380" d="M157.456,41.855s-4-7.864-4.254-13.665,7.477-17.79,7.477-17.79l1.031,6.059s2.965-3.61,10.958-4,16.114,1.8,22.689-1.934c0,0,.9,1.16-.773,4.254a15.258,15.258,0,0,1,8.895,1.289c-.516,1.676-1.031,3.352-1.418,5.156-.258,1.934,2.449,6.575,2.32,9.024s-6.961,7.993-3.738,18.177-9.8,10.184-9.8,10.184" transform="translate(43.727 2.398)" fill="#ef795c"/>
    <path id="Path_381" data-name="Path 381" d="M277.331,238.1c-5.543,1.934-34.033,3.094-52.983,4.512-5.672.387-10.442,1.031-16.243,1.289-25.654.645-87.918,24.622-107.771,7.735-13.536-11.6-20.626-4.512-46.022-5.8-4.254-.258-42.412,1.8-42.412-3.61,0-2.449,17.4-17.145,47.955-16.372,10.571.258,13.923-5.93,24.622-6.446,16.243-.773,29.908,11.989,46.151,11.989,13.407,0,26.556,1.8,39.963,2.063,8.121.258,22.946.258,30.037-.773C258.9,225.209,294.218,232.3,277.331,238.1Z" transform="translate(2.875 62.817)" fill="#dddde5"/>
    <path id="Path_382" data-name="Path 382" d="M202.362,239.167c0,2.191-10.055,3.867-22.431,3.867s-22.431-1.676-22.431-3.867,10.055-3.867,22.431-3.867S202.362,236.976,202.362,239.167Z" transform="translate(44.971 67.422)" fill="#dddde5"/>
    <path id="Path_383" data-name="Path 383" d="M112.041,28.654s-7.219-36.353,9.8-23.978c0,0,15.212,9.024.129,21.528Z" transform="translate(31.388)" fill="#454560"/>
    <path id="Path_384" data-name="Path 384" d="M113.226,25.443s-4.77-25.911,6.446-17.79c0,0,11.473,5.672.129,16.243Z" transform="translate(31.879 1.148)" fill="#f5a996"/>
    <path id="Path_385" data-name="Path 385" d="M62.36,42.4S38.9,43.689,46.762,55.291c0,0,7.735,1.934,26.556-7.735L62.36,42.4" transform="translate(12.488 11.65)" fill="#454560"/>
    <path id="Path_386" data-name="Path 386" d="M55.284,43.2C50.514,44.231,45.1,46.423,45.1,50.677a8.987,8.987,0,0,0,1.547,4.383c.258,0,.645.129.9.129l9.8-2.578c-.387-2.192-1.031-4.9-1.676-7.735-.129-.516-.258-1.16-.387-1.676" transform="translate(12.474 11.881)" fill="#323249"/>
    <path id="Path_387" data-name="Path 387" d="M194.056,45.548s10.055,26.943-11.6,32.1c0,0-16.372,6.446-22.431-11.215L156.8,46.837l7.735-5.93,5.285-11.215L181.809,27.5l5.672,5.414Z" transform="translate(44.769 7.342)" fill="#ffebd0"/>
    <path id="Path_388" data-name="Path 388" d="M179.346,40.734s-2.32-3.738-9.024-3.223a8.642,8.642,0,0,0,0,2.578C170.708,40.6,176.381,40.218,179.346,40.734Z" transform="translate(48.651 10.222)" fill="#ef795c"/>
    <path id="Path_389" data-name="Path 389" d="M170.067,29.445s-5.285,8.121-2.32,17.4a13.654,13.654,0,0,1,1.16,4.641l-3.094,8.766s2.707,3.481,6.446,2.063c0,0,1.289,14.309,2.707,14.954,0,0,9.926-.9,10.571-.9A30.932,30.932,0,0,1,174.708,78.3c-7.735-.387-13.665-6.446-14.825-14.18L155.5,33.7l5.285-4.9Z" transform="translate(44.393 7.718)" fill="#ffa488"/>
    <path id="Path_390" data-name="Path 390" d="M187.207,43.409s10.7-5.93,5.543,6.832c0,0,1.418,4.254-3.223,4.254L184.5,52.3Z" transform="translate(52.778 11.544)" fill="#ffebd0"/>
    <path id="Path_391" data-name="Path 391" d="M167.7,67.41a30.162,30.162,0,0,0,18.306-3.61s1.418,14.18.645,22.56c-.258,2.965-10.055-2.449-15.083-2.965l-.645-.129c-.516-2.578-3.223-15.856-3.223-15.856" transform="translate(47.921 17.837)" fill="#ffebd0"/>
    <path id="Path_392" data-name="Path 392" d="M159.3,47.491a2.787,2.787,0,0,1,1.934-2.707c2.063-.773,4.383-.387,4.641,1.547s-.516,2.578-3.738,2.578S159.3,47.491,159.3,47.491Z" transform="translate(45.489 12.231)" fill="#f4e4d9"/>
    <path id="Path_393" data-name="Path 393" d="M162.148,45.7s1.547.645,1.16,2.063a1.845,1.845,0,0,1-2.32,1.289,1.492,1.492,0,0,1-.9-.645,1.865,1.865,0,0,1,.129-2.449A9.951,9.951,0,0,1,162.148,45.7Z" transform="translate(45.609 12.604)" fill="#454f5e"/>
    <path id="Path_394" data-name="Path 394" d="M171.21,45.326a2.908,2.908,0,0,1,2.32-2.836c2.449-.773,4.9-.516,5.156,1.547s-.645,2.707-4.383,2.836S171.21,45.326,171.21,45.326Z" transform="translate(48.923 11.56)" fill="#fff"/>
    <path id="Path_395" data-name="Path 395" d="M174.013,43.511s1.676.645,1.289,2.192-2.965,2.063-3.61.773a1.839,1.839,0,0,1,.258-2.578h.129A2.541,2.541,0,0,1,174.013,43.511Z" transform="translate(48.956 11.957)" fill="#454f5e"/>
    <path id="Path_396" data-name="Path 396" d="M157,44.5s.516-4.383,6.832-6.7a18.261,18.261,0,0,1,1.031,2.32C164.735,40.636,159.32,42.828,157,44.5Z" transform="translate(44.827 10.32)" fill="#ef795c"/>
    <path id="Path_397" data-name="Path 397" d="M187.673,49.459l-.773-5.285,2.32-.773.9,1.676C190.123,45.2,192.314,48.3,187.673,49.459Z" transform="translate(53.472 11.939)" fill="#ffa488"/>
    <path id="Path_398" data-name="Path 398" d="M33.913,75.116l5.672,72.191,44.733,28.1,70.515-17.79,31.455-15.212-4-89.981a12.517,12.517,0,0,0-8.379-11.344c-10.442-3.738-33.388-6.188-82.891,6.059l-46.28,12.5a14.789,14.789,0,0,0-10.829,15.47" transform="translate(9.222 10.389)" fill="#d1445c"/>
    <path id="Path_399" data-name="Path 399" d="M36.454,66.074a19.579,19.579,0,0,0-3.738,13.278l5.157,65.359a5.387,5.387,0,0,1,1.289-.516L34,78.063a20.48,20.48,0,0,1,.258-4.9,13.893,13.893,0,0,1,2.192-7.09M176.71,42.225a12.4,12.4,0,0,1,5.8,9.024,11.39,11.39,0,0,0-5.8-9.024M154.022,38.1h0" transform="translate(8.874 10.406)" fill="#e7e7ed"/>
    <path id="Path_400" data-name="Path 400" d="M38.828,63.109a29.538,29.538,0,0,0-2.707,2.965,16.475,16.475,0,0,0-2.32,7.09,20.149,20.149,0,0,1,5.028-10.055M153.689,38.1a5.6,5.6,0,0,1,1.547,2.192,2.9,2.9,0,0,1,0,3.867c0,.129-.129.258-.129.387h0a6.567,6.567,0,0,1-.9,2.192l.258-.129h0a4.351,4.351,0,0,1-2.578,1.934,4.2,4.2,0,0,1-4,2.192,12.53,12.53,0,0,1-4.77-1.289,2.7,2.7,0,0,1-.773.516,12.37,12.37,0,0,1-9.024,3.867,14.6,14.6,0,0,1-4.641-.773v-.129h-.129l4.77,9.411a6.835,6.835,0,0,1-.9,4.77v.387h-.387a5.047,5.047,0,0,1-1.289,1.031c0,3.223-1.16,6.832-2.707,7.606a5.783,5.783,0,0,1-2.449.645,5.645,5.645,0,0,1-5.414-4l-2.578-7.606L108.7,50.862h-.387a7.535,7.535,0,0,1-2.449.258h-.129l.773.387L91.682,52.8l-1.8.516c0,.129.129.258.129.387a9.5,9.5,0,0,1,.516,1.8,2.031,2.031,0,0,1,.9.9,5.732,5.732,0,0,1-.773,4.125,2.716,2.716,0,0,1-2.32,1.418,3.034,3.034,0,0,1-1.031-.258l-5.157-2.063-.387.387-18.95,2.449a20.033,20.033,0,0,0-7.348,17.016L60.743,146l-2.836,1.289,10.313,5.93,8.121-8.895-3.61-16.888C71.185,109,85.623,106.81,92.326,106.81a14.153,14.153,0,0,1,3.352.258,6.022,6.022,0,0,1,2.192.387h.645c5.285,0,10.184,2.449,13.407,4.512a23.963,23.963,0,0,1,4.254-.516A19.18,19.18,0,0,1,127,114.8l8.508,9.282,7.09-10.442-4.125-13.407a2.2,2.2,0,0,1,1.289-2.836h.258l14.051-2.578h.258l.516-.129c7.864-16.759,17.79-20.11,24.493-20.11,1.16,0,2.32.129,3.61.258l-.645-22.818v-.773a12.787,12.787,0,0,0-5.8-9.024,4.765,4.765,0,0,0-1.418-.645c-4.254-1.676-10.829-3.223-21.013-3.481h-.387" transform="translate(9.207 10.406)" fill="#a61f30"/>
    <path id="Path_401" data-name="Path 401" d="M53.77,52.3a25.033,25.033,0,0,1-3.094.258H49.644l-2.578.773a20.345,20.345,0,0,0-8.766,4.9,16.8,16.8,0,0,1,1.934-1.289,14.09,14.09,0,0,1,1.934-1.031c2.449-1.8,5.414-2.32,8.508-2.707l3.094-.9" transform="translate(10.508 14.512)" fill="#c1c1cc"/>
    <path id="Path_402" data-name="Path 402" d="M56.9,50.4l-9.8,2.578h1.031a25.033,25.033,0,0,0,3.094-.258l5.028-1.289.773-.387c0-.258-.129-.387-.129-.645" transform="translate(13.052 13.963)" fill="#26263b"/>
    <path id="Path_403" data-name="Path 403" d="M40.407,55.9a16.8,16.8,0,0,0-1.934,1.289l-.773.9A11.219,11.219,0,0,1,40.407,55.9" transform="translate(10.334 15.553)" fill="#9f334a"/>
    <path id="Path_404" data-name="Path 404" d="M41.734,55.925c-.645.387-1.289.645-1.934,1.031a9.979,9.979,0,0,1,2.063-.9l-.129-.129h0M57.074,51.8c-1.418.387-2.707.516-3.738.773l-3.094.773,3.094-.387h.387l2.063-.516a6.021,6.021,0,0,0,1.289-.645" transform="translate(10.941 14.367)" fill="#afafbe"/>
    <path id="Path_405" data-name="Path 405" d="M55.328,51.3,50.3,52.589a27.734,27.734,0,0,0,3.738-.773,13.376,13.376,0,0,0,1.289-.516" transform="translate(13.977 14.223)" fill="#10101c"/>
    <path id="Path_406" data-name="Path 406" d="M33.869,65.3a21.2,21.2,0,0,0-.258,4.9L38.9,136.331c.129-.129.258-.129.516-.129L34,67.234a9.757,9.757,0,0,1-.129-1.934" transform="translate(9.138 18.271)" fill="#afafbe"/>
    <path id="Path_407" data-name="Path 407" d="M54.139,55.817a22.718,22.718,0,0,1-8.25,1.934c-2.192,0-2.192-.9-2.192-.9v-.129a14.323,14.323,0,0,0-2.063.9A22.8,22.8,0,0,0,38.8,59.684a19.945,19.945,0,0,0-4.9,10.055v1.934l5.543,68.968a23.105,23.105,0,0,1,6.575-.9,29.421,29.421,0,0,1,5.8.516l6.188,3.481,2.836-1.289L55.557,75.927a19.694,19.694,0,0,1,7.348-17.016l-4.77.645h-.129a3.858,3.858,0,0,1-3.352-3.61l-.516-.129m3.352-2.836-2.063.516a9.657,9.657,0,0,0,2.063-.516M91.524,49.5h-.129l-1.676.258c0,.129.129.129.129.258l1.676-.516" transform="translate(9.236 13.702)" fill="#7e1826"/>
    <path id="Path_408" data-name="Path 408" d="M231.369,131.454,191.793,105.8,156.6,136.223l35.193,34.806,21.915,19.079,17.661-58.655" transform="translate(44.711 29.98)" fill="#d1445c"/>
    <path id="Path_409" data-name="Path 409" d="M210.068,140.925,168.945,115.4,151.8,142.6l24.751,43.315,32.873,2.578.645-47.569" transform="translate(43.323 32.756)" fill="#d1445c"/>
    <path id="Path_410" data-name="Path 410" d="M194.029,132.8l-.129.645,2.707,1.676c0-.258.129-.387.129-.645l-2.707-1.676" transform="translate(55.496 37.787)" fill="#a5354c"/>
    <path id="Path_411" data-name="Path 411" d="M201.244,133.3l-1.547,7.219c-1.547,6.7-5.414,10.829-11.215,10.829a12.552,12.552,0,0,1-4.383-.773h0l-1.8-.516c-1.934-.516-4.9-1.16-7.606-1.8l-.387.773.387,6.317a19.373,19.373,0,0,1-6.059,7.219,2.675,2.675,0,0,0,1.289-.773l-1.418,4,4.383,1.16,6.188,1.418,25.009,10.7.129,1.289h.129l-.387-37.771a21.471,21.471,0,0,1,.258-7.606l-2.965-1.676" transform="translate(48.152 37.931)" fill="#a5354c"/>
    <path id="Path_412" data-name="Path 412" d="M149.8,66.7v.9a7.389,7.389,0,0,1,1.8-.516c-.516-.129-1.16-.258-1.8-.387" transform="translate(42.745 18.675)" fill="#dddde5"/>
    <path id="Path_413" data-name="Path 413" d="M149.4,66.6v1.289l.516-.129v-.9L149.4,66.6" transform="translate(42.63 18.647)" fill="#b53b53"/>
    <path id="Path_414" data-name="Path 414" d="M119.99,105.489l-7.09,10.442,8.25,9.024,1.8-2.578c-6.575-2.191-2.063-4.254-2.063-4.254-2.707-.516-2.836-2.063-2.707-3.223a1.238,1.238,0,0,1,1.16-.9h.258l3.352.773-2.965-9.282M156.344,66.3c-6.7,0-16.63,3.352-24.493,20.11l1.289-.258c.258,0,.387-.129.645-.129a3.018,3.018,0,0,1,2.836,2.192l2.965,9.411,5.028-7.477c1.676-14.051,8.25-20.11,15.212-22.431V66.429c-1.16,0-2.32-.129-3.481-.129" transform="translate(32.077 18.56)" fill="#901b2b"/>
    <path id="Path_415" data-name="Path 415" d="M89.655,149.411l-4,2.707,4.77,2.965-.9.516h0a11.088,11.088,0,0,1,2.063-.129h.129l-.387-1.031-1.676-5.028M83.725,91.4c-6.7,0-21.271,2.192-19.595,20.626l3.61,16.63,9.54-10.571c-.258-.773-.516-1.547-.773-2.578l-.129-.387a14.989,14.989,0,0,1-.516-2.32C74.572,107,74.443,99.65,79.6,95.4a14.923,14.923,0,0,1,9.153-3.481h.516c-.773-.129-1.418-.258-2.192-.387-1.16,0-2.32-.129-3.352-.129" transform="translate(17.937 25.817)" fill="#901b2b"/>
    <path id="Path_416" data-name="Path 416" d="M185.644,176.709l14.825-31.2,14.18-69.355-36.74-8.25S148,58.238,144.263,90.337L115,133.394l34.806,40.092,35.838,3.223" transform="translate(32.684 18.629)" fill="#0770e3"/>
    <path id="Path_417" data-name="Path 417" d="M124.371,134.645l19.595-21.271c3.61-30.423,14.567-46.28,23.591-46.537-2.707-.773-20.884-7.09-24.493,23.462L113.8,133.485l34.806,40.092,10.184.9Z" transform="translate(32.337 18.41)" fill="#084eb2"/>
    <path id="Path_418" data-name="Path 418" d="M188.4,157.177l.387,7.477s-12.118,28.1-39.576-14.954L119.3,115.023l9.54-13.923,46.151,41.639,17.016,12.891-3.61,1.547" transform="translate(33.927 28.621)" fill="#084eb2"/>
    <path id="Path_419" data-name="Path 419" d="M189.763,98.393l-2.449,51.694-28.232-24.236L149.8,141.321l24.236,22.3c2.449,1.031,13.278,3.352,15.341,4,8.121,2.578,13.794-1.8,15.6-10.055l10.442-47.182C225.472,80.475,203.943,73.9,203.943,73.9l-14.18,24.493" transform="translate(42.745 20.757)" fill="#0770e3"/>
    <path id="Path_420" data-name="Path 420" d="M92.97,220.4l-2.836,23.849c-.129,1.418-2.192,6.832,2.192,7.219a7.883,7.883,0,0,0,8.508-6.188l5.543-24.622L92.97,220.4" transform="translate(25.322 63.114)" fill="#f9b450"/>
    <path id="Path_421" data-name="Path 421" d="M53.192,201.2l-2.836,23.978c-.129,1.418-2.449,6.059,2.192,7.219a7.883,7.883,0,0,0,8.508-6.188L66.6,201.587,53.192,201.2" transform="translate(13.793 57.563)" fill="#f9b450"/>
    <path id="Path_422" data-name="Path 422" d="M98.917,146.547,52.509,120.12S26.082,114.447,32.527,140.1l16.5,65.745,1.031,15.469a9.4,9.4,0,0,0,5.028,7.606l54.788,27.072.516-22.946-10.055-43.572-1.418-42.928" transform="translate(8.546 33.966)" fill="#d1445c"/>
    <path id="Path_423" data-name="Path 423" d="M48.03,202.749l.645,2.32a15.584,15.584,0,0,0-.645-2.32m-3.481-14.18,1.031,4.383a18.018,18.018,0,0,0-1.031-4.383M47,182.509a7.189,7.189,0,0,1-3.61,1.289l1.16,4.641L47,182.509m7.348-17.4-4.512,2.449a32.265,32.265,0,0,1,.516,7.09l4-9.54m35.967-13.149L79.871,157.5l.516.258L51.124,224.793a11.062,11.062,0,0,0,4.77,4.641L107.329,254.7c-1.676-2.449-1.8-5.93-1.8-8.637-.387-8.766-.9-17.274-.9-17.274L87.477,171.552l-1.289-9.54a11.5,11.5,0,0,1,4.125-10.055m8.637-4.512h0M46.612,119.6c-6.188,0-15.212,1.934-15.212,13.278a28.869,28.869,0,0,0,1.031,7.348l4.641,18.563.773-.258,15.341-8.379v-.129l.129.129h.129l-1.289-2.063,16.759-18.434-16.5-9.411a27.566,27.566,0,0,0-5.8-.645" transform="translate(8.513 33.97)" fill="#b83c53"/>
    <path id="Path_424" data-name="Path 424" d="M214.307,206.5l2.836,23.978c.129,1.418,2.192,6.832-2.191,7.219a7.883,7.883,0,0,1-8.508-6.188L200.9,206.887Z" transform="translate(57.519 59.095)" fill="#f9b450"/>
    <path id="Path_425" data-name="Path 425" d="M102.776,240.62l138.581-14.18-12.118-55.175s-24.751-6.575-58.011,6.7a30.148,30.148,0,0,1-17.532,1.547c-15.985-3.481-48.987-8.508-63.3,3.352l12.376,57.753" transform="translate(25.571 48.437)" fill="#d1445c"/>
    <path id="Path_426" data-name="Path 426" d="M198.323,230.471l-1.8-20.239-.773-64.972s-3.61-21.4,19.981-20.755c0,0,12.891-2.191,6.446,35.064l-3.61,38.545,2.063,30.939a11.225,11.225,0,0,1-9.926,11.86h0a11.584,11.584,0,0,1-12.376-10.442" transform="translate(55.972 35.381)" fill="#e18b96"/>
    <path id="Path_427" data-name="Path 427" d="M222.636,178.054l.9,3.352s-21.4-8.508-46.666,6.188l-24.493,4.254s-33.646-12.891-51.178-1.418l.516-37.127,2.32-17.4,35.193,15.469,52.854,14.7,6.188,1.418,24.364,10.571" transform="translate(28.694 38.683)" fill="#d1445c"/>
    <path id="Path_428" data-name="Path 428" d="M195.7,169.7l.258.9h.258v-.773l-.516-.129" transform="translate(56.016 48.455)" fill="#922f45"/>
    <path id="Path_429" data-name="Path 429" d="M168.4,158.4h0l4.254,1.289,6.188,1.418,24.364,10.442.387,1.418.387.129-.129-1.289-25.009-10.7-6.188-1.418L168.4,158.4" transform="translate(48.123 45.188)" fill="#732539"/>
    <path id="Path_430" data-name="Path 430" d="M186.055,169.3a53.039,53.039,0,0,0-10.055.9c2.707-.258,5.414-.387,7.864-.387,1.547,0,2.965-.129,4.383-.129,2.063,0,3.867.129,5.543.129a51.982,51.982,0,0,0-7.735-.516" transform="translate(50.32 48.34)" fill="#922f45"/>
    <path id="Path_431" data-name="Path 431" d="M199.89,170.631l.258.9v-.9h-.258M186.483,169.6c-1.418,0-2.836,0-4.383.129h.645a66.155,66.155,0,0,1,17.4,1.934h0a43.813,43.813,0,0,0-8.121-1.934c-1.676-.129-3.481-.129-5.543-.129" transform="translate(52.084 48.426)" fill="#922f45"/>
    <path id="Path_432" data-name="Path 432" d="M196.1,171.345h0m0-.645v.645h0V170.7" transform="translate(56.132 48.744)" fill="#9d6170"/>
    <path id="Path_433" data-name="Path 433" d="M107.2,164.975l.258,5.028a20.611,20.611,0,0,1,.645-2.707l-.9-2.32m78.894-6.575-1.031,2.578a25.752,25.752,0,0,1-2.449,5.414c2.578,2.449,4,5.672.516,9.024a107.936,107.936,0,0,1,12.891-2.32,66.249,66.249,0,0,1,10.055-.9,49.166,49.166,0,0,1,7.606.516,41.489,41.489,0,0,1,8.121,1.934h0l-.258-.9-.258-.9-.387-1.418-24.364-10.442-6.188-1.418-4.254-1.16" transform="translate(30.428 45.188)" fill="#922f45"/>
    <path id="Path_434" data-name="Path 434" d="M201.629,197.393l-37,3.094-51.952,4.9a29.325,29.325,0,0,1-3.352.258,11.724,11.724,0,0,1-5.028-1.031c.258,2.191.516,4.254.773,6.446l2.965-.516,95.4-9.282a4.118,4.118,0,0,0-.387-1.8,19.67,19.67,0,0,0-1.418-2.063m21.142-7.993c-1.16,5.543-16.114,7.606-19.595,7.993a6.112,6.112,0,0,1,1.289,1.289,5.868,5.868,0,0,1,1.031,2.449l17.661-1.676-.258-7.477v-1.547l-.129-1.031" transform="translate(29.59 54.151)" fill="#ba2639"/>
    <path id="Path_435" data-name="Path 435" d="M196.3,190.2v0" transform="translate(56.19 54.382)" fill="#c84e5c"/>
    <path id="Path_436" data-name="Path 436" d="M118.037,174.6a47.831,47.831,0,0,0-8.637.773,7.156,7.156,0,0,1,3.481,5.285l5.543.258,14.051,5.414a21.288,21.288,0,0,0,16.63-.516l13.149-6.059c3.481-.9,6.446-1.8,9.024-2.707l-8.379,1.418c-.645.387-1.289.773-2.063,1.16h0a32.644,32.644,0,0,1-12.633,2.191h-.645l-5.285.9a78.246,78.246,0,0,0-22.689-8.121h-1.547" transform="translate(31.065 49.872)" fill="#ba2639"/>
    <path id="Path_437" data-name="Path 437" d="M113.485,174.794a23.725,23.725,0,0,0-5.285.516h0a4.356,4.356,0,0,1,1.547.773,48.9,48.9,0,0,1,8.637-.773H119.8a50.1,50.1,0,0,0-6.317-.516M182.84,171.7a82.356,82.356,0,0,0-19.595,7.606l8.379-1.418c5.8-2.191,9.282-4.254,11.215-6.188" transform="translate(30.718 49.034)" fill="#ba2639"/>
    <path id="Path_438" data-name="Path 438" d="M160.643,178.467l-4.254.773c.773.129,1.547.258,2.192.387h0c.773-.516,1.418-.774,2.063-1.16M117.2,174.6a79.62,79.62,0,0,1,22.689,8.121l5.285-.9a33.769,33.769,0,0,1-19.337-6.446c-2.836-.387-5.672-.645-8.637-.773" transform="translate(33.32 49.872)" fill="#821b2b"/>
    <path id="Path_439" data-name="Path 439" d="M107.945,165.473a20.6,20.6,0,0,0-.645,2.707l.129,1.418.129.258.9,7.477a24.5,24.5,0,0,1,5.285-.516,34.809,34.809,0,0,1,6.317.516,65.148,65.148,0,0,1,8.637.773,22.445,22.445,0,0,1-2.836-2.32l-14.309-.9-3.61-9.411m74.769-.773c-6.188,10.829-18.434,15.341-24.751,17.016l1.289.258,4.254-.773a87.843,87.843,0,0,1,19.595-7.477c3.481-3.481,2.192-6.574-.387-9.024" transform="translate(30.457 47.01)" fill="#821b2b"/>
    <path id="Path_440" data-name="Path 440" d="M110.478,170.014l.9,7.477a7.535,7.535,0,0,1,4.9,8.895s9.8,12.891,5.285,18.821c0,0-.773,4-11.6,2.965l-9.54-1.8-1.289-16.114L97.2,170.014l10.829-5.414,2.449,5.414" transform="translate(27.537 46.981)" fill="#f5a996"/>
    <path id="Path_441" data-name="Path 441" d="M47.817,209.1c.129.129.129.387.258.516h0a.67.67,0,0,1-.258-.516m-2.063-19.337c0,.387.129.773.129,1.289.516,4.383.387,10.571,1.031,15.083h0l-1.031-15.469-.129-.9M42.66,177.641c.258,1.418.387,2.707.645,3.867a31.5,31.5,0,0,0,1.8,5.93l-2.449-9.8M41.5,173h0v0" transform="translate(11.433 49.409)" fill="#d1445c"/>
    <path id="Path_442" data-name="Path 442" d="M44.8,185.9h0l.258.773,1.031,15.469h0a13.6,13.6,0,0,0,.773,3.094c.129.129.129.387.258.516l.129-.258a10.189,10.189,0,0,1-1.289-4.254l-1.031-14.567L44.8,185.9" transform="translate(12.387 53.139)" fill="#ab1221"/>
    <path id="Path_443" data-name="Path 443" d="M76.951,149l-16.243,8.508h0l-2.836-4.383-6.446,3.481-4,9.54c-.258,4.254-1.676,6.575-3.352,7.864l-2.578,5.93v.129a16.722,16.722,0,0,1,1.031,4.383l2.449,9.8a15.587,15.587,0,0,1,.645,2.32l.258.773,1.031,14.567a9.652,9.652,0,0,0,1.289,4.254l29.263-67.034L76.951,149" transform="translate(11.433 42.47)" fill="#97101e"/>
    <path id="Path_444" data-name="Path 444" d="M104.823,99.256s-8.895-7.993-18.563-7.348c0,0-18.306-.258-12.5,23.075l13.407,34.033,14.954,47.44s3.738-8.25,15.469-4.77L114.1,123.234l-9.282-23.978" transform="translate(20.43 25.953)" fill="#729cd3"/>
    <path id="Path_445" data-name="Path 445" d="M87.307,148.357h0l1.547,5.028-1.547-5.028M73.9,114.71c.258.9.516,1.8.773,2.578l.129-.129-.9-2.449M76.994,94.6c-5.156,4.254-4.9,11.6-3.738,17.4-1.8-9.411.516-14.567,3.738-17.4" transform="translate(20.414 26.742)" fill="#741624"/>
    <path id="Path_446" data-name="Path 446" d="M100.442,139.984l-1.934,1.289-11.215,7.864,1.547,5.028.387,1.031a16.1,16.1,0,0,1,10.7,5.028l6.059,31.455c1.418-.387,2.707-.773,4.125-1.16l-.129-.516,4-14.309-13.536-35.709M86.262,91.9a17.453,17.453,0,0,0-9.282,3.481c-3.223,2.836-5.543,7.993-3.738,17.4.258.9.387,1.8.645,2.578l.9,2.449,6.446-7.09.516-.645C76.593,96.928,86.262,91.9,86.262,91.9" transform="translate(20.428 25.961)" fill="#5c7db2"/>
    <path id="Path_447" data-name="Path 447" d="M116.831,197.8a16.864,16.864,0,0,1-5.672.9c-1.031,0-2.191-.129-3.481-.129l-2.578-.516a18.382,18.382,0,0,0,6.446,1.16,14.6,14.6,0,0,0,4.641-.773l1.16-.387-.516-.258" transform="translate(29.821 56.58)" fill="#cd3849"/>
    <path id="Path_448" data-name="Path 448" d="M102.6,168.9l-1.16.258a21.489,21.489,0,0,1-2.578,1.031l-.258.129,6.575,34.291c0,.387.129.773.129,1.289a6.476,6.476,0,0,0,1.676.645l2.578.516a33.817,33.817,0,0,0,3.481.129,14.17,14.17,0,0,0,5.672-.9c-17.016-5.543-14.954-30.81-14.954-30.81L102.6,168.9" transform="translate(27.942 48.224)" fill="#f08c77"/>
    <path id="Path_449" data-name="Path 449" d="M98.887,170.147l-.387.129v.129l.387-.258m3.738-1.547a7.657,7.657,0,0,0-1.031.516l1.16-.258-.129-.258" transform="translate(27.913 48.137)" fill="#7081a7"/>
    <path id="Path_450" data-name="Path 450" d="M69.821,155.18l-11.473,6.188s3.352,20.5-11.86,14.7l-14.825-4.641L2.141,167.556s-1.934-8.121,6.7-7.09l4.254,2.449,33.388-10.442L67.5,141l2.32,14.18" transform="translate(0 40.157)" fill="#f5a996"/>
    <path id="Path_451" data-name="Path 451" d="M152.564,130.177,123.3,98.464s-15.727-12.891-34.806,11.473L47.5,155.186,58.973,173.1s30.552-22.3,49.116-34.162l-.516-1.16,27.587,47.827s12.891,23.333,36.224,17.145c0,0,24.751-3.867,30.939-23.333l2.449-6.575s-11.215,8.766-26.814-13.923c0,0-12.891-13.794-25.4-28.747" transform="translate(13.168 26.874)" fill="#9fbee5"/>
    <g id="Group_11" data-name="Group 11" transform="translate(124.995 211.323)">
      <g id="Group_10" data-name="Group 10" clip-path="url(#clip-path)">
        <path id="Path_452" data-name="Path 452" d="M111.489,172.269a2.8,2.8,0,1,1-3.738-1.289,2.646,2.646,0,0,1,3.738,1.289Z" transform="translate(-94.859 -162.6)" fill="#fff"/>
        <path id="Path_453" data-name="Path 453" d="M103.489,178.863a2.8,2.8,0,1,1-3.738-1.289,2.744,2.744,0,0,1,3.738,1.289Z" transform="translate(-97.172 -160.687)" fill="#fff"/>
        <path id="Path_454" data-name="Path 454" d="M112.589,184.163a2.8,2.8,0,1,1-3.738-1.289,2.679,2.679,0,0,1,3.738,1.289Z" transform="translate(-94.541 -159.154)" fill="#fff"/>
        <path id="Path_455" data-name="Path 455" d="M113.589,193.151a2.8,2.8,0,1,1-3.738-1.289,2.78,2.78,0,0,1,3.738,1.289Z" transform="translate(-94.252 -156.54)" fill="#fff"/>
        <path id="Path_456" data-name="Path 456" d="M101.489,190.851a2.8,2.8,0,1,1-3.738-1.289,2.856,2.856,0,0,1,3.738,1.289Z" transform="translate(-97.751 -157.205)" fill="#fff"/>
      </g>
    </g>
    <path id="Path_458" data-name="Path 458" d="M99.47,146.134s-8.508-10.055-19.724-1.8c-4.125,2.965-6.446,6.446-5.93,11.6l1.289,9.54L92.25,222.579s.516,8.508.9,17.274c.129,4.125.387,10.442,6.575,11.6l3.481.258c7.348,0,11.215-4.77,11.473-12.118.258-7.606-.9-17.145-2.449-26.943L99.47,146.134" transform="translate(20.756 40.18)" fill="#e18b96"/>
    <path id="Path_459" data-name="Path 459" d="M98.095,46.747h-.387A7.933,7.933,0,0,1,95.259,47H95.13l.773.387-7.477.645L78.5,50.743l14.825-1.289-.773-.387h.129a15.794,15.794,0,0,0,2.449-.258h.387l8.895,14.309,2.578,7.606a5.989,5.989,0,0,0,5.414,4,5.332,5.332,0,0,0,2.449-.645c1.547-.773,2.707-4.383,2.707-7.606l-.129.129h0l-.129.129v.129h-.258c-.258.129-.387.129-.645.258-.516.129-.9.129-1.418.258h-.645a5.735,5.735,0,0,1-4.77-3.867L106.99,55.9l-8.895-9.153M132.385,45.2h-.129a17.6,17.6,0,0,1-2.192,2.192,11.929,11.929,0,0,0,4.77,1.289,4.2,4.2,0,0,0,4-2.192,5.288,5.288,0,0,1-1.418.129,10.862,10.862,0,0,1-5.028-1.418" transform="translate(22.131 12.459)" fill="#880811"/>
    <path id="Path_460" data-name="Path 460" d="M89.062,47.4l-7.606.645L76.3,48.56a6.945,6.945,0,0,1,.9,1.676l1.676-.258h.129L89.062,47.4" transform="translate(21.495 13.095)" fill="#67060e"/>
    <path id="Path_461" data-name="Path 461" d="M83.916,52.843c.258,1.16,0,1.676-.258,1.676l-2.965.258c0,.129.129.129.129.258h-.387l-17.661,1.16A20.117,20.117,0,0,0,56.2,59.676l18.95-2.449.387-.129,5.156,2.063A2.488,2.488,0,0,0,84.045,58a5.854,5.854,0,0,0,.773-4.125,2.388,2.388,0,0,0-.9-1.031M135.61,47.3a12.455,12.455,0,0,1-6.446,1.8h-.516a12.376,12.376,0,0,1-4.254-.773V48.2h-.645a4.58,4.58,0,0,1-1.289-.258,2.96,2.96,0,0,1-1.8-.516l1.289,2.707h.129v.129a14.025,14.025,0,0,0,4.641.773A11.437,11.437,0,0,0,135.61,47.3" transform="translate(15.683 13.066)" fill="#880811"/>
    <path id="Path_462" data-name="Path 462" d="M49.808,53c-3.094.387-6.059.773-8.508,2.707,1.16-.516,2.32-.9,3.481-1.289L49.808,53" transform="translate(11.375 14.714)" fill="#9f334a"/>
    <path id="Path_463" data-name="Path 463" d="M54.973,50.9l-.773.387.773-.258V50.9" transform="translate(15.105 14.107)" fill="#1f0a15"/>
    <path id="Path_464" data-name="Path 464" d="M53.289,52.976H52.9l-3.094.387-5.028,1.418c-1.16.387-2.32.773-3.481,1.289h0l.129.129,1.16-.387,10.7-2.836M58.832,51.3a16.034,16.034,0,0,1-2.063.516c-.645.129-.9.387-1.418.516l3.481-.9V51.3" transform="translate(11.375 14.223)" fill="#8f2e44"/>
    <path id="Path_465" data-name="Path 465" d="M55.234,51.1l-.773.258c-.387.258-.773.387-1.16.645.645-.129,1.289-.387,2.063-.516a.474.474,0,0,1-.129-.387" transform="translate(14.845 14.165)" fill="#0d040a"/>
    <path id="Path_466" data-name="Path 466" d="M58.832,51.5l-3.481.9a9.657,9.657,0,0,1-2.063.516L42.46,55.754l-1.16.387v.129s0,.9,2.192.9a29.633,29.633,0,0,0,8.25-1.934L52,55.5a3.974,3.974,0,0,0,3.352,3.61h.129l4.77-.645a17.952,17.952,0,0,1,6.575-3.481l-4.77.387h-.129a3.858,3.858,0,0,1-3.352-3.61l.258-.258" transform="translate(11.375 14.281)" fill="#67060e"/>
    <path id="Path_467" data-name="Path 467" d="M109.685,48.739c1.289.773,3.223.773,5.93-.9-4.254-.516-18.821-9.8-21.271-.516H93.7l9.024,9.024,2.578,7.606a5.724,5.724,0,0,0,7.219,3.61c.258-.129.516-.129.773-.258,1.8-.9,3.094-2.836,2.707-6.446l-6.317-12.118" transform="translate(26.525 11.885)" fill="#69697f"/>
    <path id="Path_468" data-name="Path 468" d="M146.484,43.834l-2.578-11.6s0-16.63-20.5-17.532l-16.888,3.738-9.54-1.418S61.659,10.059,53.8,34.424l-.773,12.891c-.9,7.735,4.512,13.149,12.247,12.762h.773l27.845-3.094,12.762-1.418c.516-4.254,4.254-3.867,8.379-2.965A40.757,40.757,0,0,1,126.5,56.725a22.251,22.251,0,0,0,3.61-2.449s15.727.387,19.466-2.836a5.479,5.479,0,0,0-2.836-7.348c-.129-.129-.129-.258-.258-.258" transform="translate(14.736 3.641)" fill="#69697f"/>
    <path id="Path_469" data-name="Path 469" d="M82.28,18.253l9.54,1.418,7.993-1.8-7.477-1.16s-12.5-2.449-24.236.645a57.933,57.933,0,0,1,14.18.9" transform="translate(19.124 3.955)" fill="#454560"/>
    <path id="Path_470" data-name="Path 470" d="M130.764,43.813l-2.578-11.6s0-15.727-18.95-17.4a5.321,5.321,0,0,0-2.836.516c13.278,2.836,11.731,18.306,11.731,18.306l2.578,11.6A5.558,5.558,0,0,1,123.8,52.45c0,.129-.129.129-.129.258a7.837,7.837,0,0,1-2.32,1.16c4.641-.258,10.313-.9,12.376-2.707a5.479,5.479,0,0,0-2.836-7.348h-.129" transform="translate(30.197 3.662)" fill="#454560"/>
    <path id="Path_471" data-name="Path 471" d="M94.191,37.582c-6.059-3.738-13.665-3.61-20.368-3.61H72.791A37.135,37.135,0,0,1,55.13,28.3c-3.481,9.926-1.16,20.884-1.16,20.884.9,9.153,15.469,6.059,15.469,6.059l33.775-2.836-.773-.387c2.063,0,3.223-.258,2.836-.645-5.285-5.8-6.7-11.086-11.086-13.794" transform="translate(14.819 7.573)" fill="#454560"/>
    <path id="Path_472" data-name="Path 472" d="M131.581,40.4a10.813,10.813,0,0,1-9.282-9.54,6.218,6.218,0,0,0-2.192-3.738c-1.547-1.16-3.223-1.16-2.32,6.188,0,0-1.031,7.348-6.188,9.153,0,0-10.829,1.16-5.8,9.8,0,0,4.125,5.8,9.282-1.418,0,0,8.508.9,14.954-1.031,0-.129,11.086-2.063,1.547-9.411" transform="translate(29.638 7.07)" fill="#fff"/>
    <path id="Path_473" data-name="Path 473" d="M77.6,23.87s13.923,12.891-4.77,30.037l7.606.516c1.8.129,2.836.516,4,3.738.9,2.449.645,3.481.129,3.481L59.553,63.575a3.908,3.908,0,0,1-3.867-3.481C53.623,48.879,43.31,16.006,77.6,23.87" transform="translate(14.651 5.945)" fill="#69697f"/>
    <path id="Path_474" data-name="Path 474" d="M156.137,131.191c4.512-1.16,1.289-7.348,3.738-14.567L145.05,107.6l-8.25,2.965.258,7.09,19.079,13.536" transform="translate(38.987 30.501)" fill="#ffebd0"/>
    <path id="Path_475" data-name="Path 475" d="M197.634,218.8c0,3.738-6.575,6.7-14.567,6.7s-14.567-2.965-14.567-6.7,6.575-6.7,14.567-6.7,14.567,2.965,14.567,6.7" transform="translate(48.152 60.714)" fill="#9fbee5"/>
    <path id="Path_476" data-name="Path 476" d="M171.79,223.138h-4.77a3.766,3.766,0,0,0-2.965,4.383s.129,3.223,4.125,3.223l6.059.129-1.934,3.223h-4.641s-6.7-.9-6.446-6.7c0,0-1.16-5.028,5.156-6.7l6.446-1.289Z" transform="translate(46.022 62.825)" fill="#454560"/>
    <path id="Path_477" data-name="Path 477" d="M197.505,218.092c-.129,2.965-.258,6.059-.516,9.024-.258,5.156,0,10.184-3.223,14.18-3.867,4.641-10.7,4.641-15.856,3.223-4.9-1.289-8.121-5.414-8.508-11.215l-.9-15.856,20.239-1.547,8.766,2.192" transform="translate(48.152 61.813)" fill="#9fbee5"/>
    <path id="Path_478" data-name="Path 478" d="M194.278,217.352c0,1.8-5.285,3.352-11.989,3.352s-11.989-1.547-11.989-3.352S175.585,214,182.289,214s11.989,1.547,11.989,3.352" transform="translate(48.672 61.264)" fill="#634e42"/>
    <path id="Path_479" data-name="Path 479" d="M182.189,214.1c-6.575,0-11.989,1.418-11.989,3.352,0,.258.129.387.129.516h.129a.775.775,0,0,1-.129-.516c.129-1.934,5.414-3.352,11.86-3.352h0" transform="translate(48.643 61.292)" fill="#3e3a3b"/>
    <path id="Path_480" data-name="Path 480" d="M170.529,217.1H170.4c.9,1.418,5.028,2.578,10.184,2.707h0c-5.156-.258-9.153-1.289-10.055-2.707" transform="translate(48.701 62.16)" fill="#3e3a3b"/>
    <path id="Path_481" data-name="Path 481" d="M182.26,214.108c-6.575,0-11.86,1.547-11.86,3.352,0,.258,0,.387.129.516.9,1.418,4.9,2.449,9.926,2.707-3.481-.516-5.93-1.676-5.93-2.836,0-1.8,5.285-3.352,11.989-3.352h1.547a29.268,29.268,0,0,0-5.8-.387" transform="translate(48.701 61.285)" fill="#261811"/>
    <path id="Path_482" data-name="Path 482" d="M107.3,37.391a2.787,2.787,0,0,1,1.934-2.707c2.191-.773,4.383-.387,4.641,1.547s-.516,2.578-3.738,2.578S107.3,37.391,107.3,37.391Z" transform="translate(30.454 9.311)" fill="#fff"/>
    <path id="Path_483" data-name="Path 483" d="M111.348,35.811s1.547.645,1.16,2.063a1.9,1.9,0,0,1-2.32,1.289,2.078,2.078,0,0,1-.9-.516,1.865,1.865,0,0,1,.129-2.449A2.655,2.655,0,0,1,111.348,35.811Z" transform="translate(30.921 9.731)" fill="#454f5e"/>
    <path id="Path_484" data-name="Path 484" d="M125.805,33.56c-.129-.387-.129-.773-.258-1.16a8.312,8.312,0,0,0-2.578.387,2.634,2.634,0,0,0-2.063,2.578s-.516,1.289,2.707,1.289a8.933,8.933,0,0,0,2.578-.387A9.813,9.813,0,0,0,125.805,33.56Z" transform="translate(34.383 8.758)" fill="#f4e4d9"/>
    <path id="Path_485" data-name="Path 485" d="M123.659,33.9a1.6,1.6,0,0,1,1.547,1.676v.258c-.387,1.289-2.578,1.8-3.223.773a1.6,1.6,0,0,1,.129-2.192h0A2.477,2.477,0,0,1,123.659,33.9Z" transform="translate(34.595 9.192)" fill="#454f5e"/>
    <path id="Path_486" data-name="Path 486" d="M109.2,50.153a12.846,12.846,0,0,0,14.18-3.738s7.864,4.641,9.8-2.707V41l-2.063,1.547-10.442,3.867-10.184-1.934L109.2,50.153" transform="translate(31.007 11.245)" fill="#fff"/>
    <path id="Path_487" data-name="Path 487" d="M112.238,48.766l-2.707-1.289a5.465,5.465,0,0,1-3.223-4.383A4.483,4.483,0,0,1,107.082,40c-2.192,1.289-3.867,3.867-1.289,8.25,0,0,1.934,2.707,4.77,2.192v.129a12.843,12.843,0,0,0,13.923-3.352,14.275,14.275,0,0,1-12.247,1.547" transform="translate(29.644 10.956)" fill="#cdcdd7"/>
    <path id="Path_488" data-name="Path 488" d="M122.034,43.9h-.258a20.542,20.542,0,0,1-1.676,1.676h.129c.9.516,6.575,3.223,9.024-.773-2.707,1.418-6.575-.516-7.219-.9" transform="translate(34.158 12.083)" fill="#cdcdd7"/>
    <path id="Path_489" data-name="Path 489" d="M119.8,45.558l.387-.258h-.129Z" transform="translate(34.071 12.488)" fill="#cdcdd7"/>
    <path id="Path_490" data-name="Path 490" d="M114.564,39.681l11.473-1.676a1.187,1.187,0,0,1,1.418.9c.516,1.418.645,4.125-4.254,7.348a1.37,1.37,0,0,1-1.031.129,17.2,17.2,0,0,1-8.379-4.512,1.381,1.381,0,0,1-.129-1.8,1.714,1.714,0,0,1,.9-.387" transform="translate(32.217 10.372)" fill="#454560"/>
    <path id="Path_491" data-name="Path 491" d="M115.854,39.1l-1.289.129a1.164,1.164,0,0,0-1.16,1.418,1.393,1.393,0,0,0,.387.9l.258.258-.129-.129a1.38,1.38,0,0,1-.129-1.8,1.114,1.114,0,0,1,.773-.387l1.289-.387h0" transform="translate(32.217 10.696)" fill="#49475d"/>
    <path id="Path_492" data-name="Path 492" d="M115.854,39.1l-1.289.129a1.164,1.164,0,0,0-1.16,1.418.919.919,0,0,0,.387.773l.129.129a18.559,18.559,0,0,0,8.121,4.383h.258a1.832,1.832,0,0,0,.773-.258,11.5,11.5,0,0,0,4.125-4.125,14.072,14.072,0,0,1-2.192,1.676,1.832,1.832,0,0,1-.773.258h-.258a16.27,16.27,0,0,1-8.121-4.383" transform="translate(32.217 10.696)" fill="#23223d"/>
    <path id="Path_493" data-name="Path 493" d="M109.8,27.7S101.035-6.335,89.562,12.358c0,0-11.344,13.407,10.442,18.177l9.8-2.836" transform="translate(24.475 1.343)" fill="#69697f"/>
    <path id="Path_494" data-name="Path 494" d="M106.2,25.864S97.559.984,91.887,13.488c0,0-7.219,10.571,7.864,14.18Z" transform="translate(25.502 2.274)" fill="#f5a996"/>
    <path id="Path_495" data-name="Path 495" d="M157,118.048l20.884,14.567,10.184,17.79-3.481-13.794,9.8,6.7-9.411-16.63L186.263,100l-7.348,27.2Z" transform="translate(44.827 28.303)" fill="#084eb2"/>
    <path id="Path_496" data-name="Path 496" d="M106.5,149.7h0l.258.387-.129.516.9,16.888.9,2.32c.9-3.094,2.707-5.672,6.059-6.575L106.5,149.7" transform="translate(30.226 42.673)" fill="#75263a"/>
    <path id="Path_497" data-name="Path 497" d="M152.307,178.4,138.9,180.592h.773a32.232,32.232,0,0,0,12.633-2.192" transform="translate(39.594 50.971)" fill="#961f30"/>
    <path id="Path_498" data-name="Path 498" d="M124,175.1a33.769,33.769,0,0,0,19.337,6.446l13.407-2.191h0c-.773-.129-1.547-.258-2.192-.387l-8.766,1.547-.387-.129c-1.289.129-2.578.258-3.867.258a28.775,28.775,0,0,1-16.63-5.414l-.9-.129" transform="translate(35.286 50.017)" fill="#691624"/>
    <path id="Path_499" data-name="Path 499" d="M157.789,183.018c-1.289.387-2.578.645-3.867.9a19.942,19.942,0,0,1-4,.773l.387.129,8.766-1.547-1.289-.258M113.959,160.2c-3.352.9-5.156,3.352-6.059,6.575l3.61,9.411,14.309.9c.9.773,1.934,1.547,2.836,2.32l.9.129a41.543,41.543,0,0,1-11.86-12.762l-3.738-6.575" transform="translate(30.631 45.709)" fill="#691624"/>
    <path id="Path_500" data-name="Path 500" d="M110.085,156.819l-2.32,8.379,3.223,8.508-.9-16.888M94.1,128.2l.516,1.16-.387.258,15.856,26.427v-.129L94.1,128.2" transform="translate(26.641 36.457)" fill="#5c7db2"/>
    <path id="Path_501" data-name="Path 501" d="M106.5,149.7v.9l.129-.516-.129-.387" transform="translate(30.226 42.673)" fill="#5e1f31"/>
    <path id="Path_502" data-name="Path 502" d="M94.2,129.2h0l13.536,35.709,2.32-8.379v-.9L94.2,129.2" transform="translate(26.67 36.746)" fill="#4a6496"/>
    <path id="Path_503" data-name="Path 503" d="M84.725,136.2,80.6,139.036l.258.129,4-2.707-.129-.258" transform="translate(22.738 38.77)" fill="#741624"/>
    <path id="Path_504" data-name="Path 504" d="M83.9,136.1h0v.387l.129-.129h0L83.9,136.1" transform="translate(23.692 38.741)" fill="#5d121e"/>
    <path id="Path_505" data-name="Path 505" d="M95.244,130.2c-3.481,2.32-7.348,4.9-11.344,7.606l.129.258h0L95.244,130.2" transform="translate(23.692 37.035)" fill="#4a6496"/>
    <path id="Path_506" data-name="Path 506" d="M79.662,141.1c-4.512,3.223-8.895,6.317-12.762,9.024h.129L79.662,141.1" transform="translate(18.777 40.186)" fill="#943046"/>
    <path id="Path_507" data-name="Path 507" d="M69.907,148c-7.864,5.672-13.407,9.668-13.407,9.668L69.907,148h0" transform="translate(15.77 42.181)" fill="#790d19"/>
    <path id="Path_508" data-name="Path 508" d="M56.4,167.194h0M105,115.5l-7.477,13.149L56.4,167.323s5.543-4.125,13.407-9.668c3.867-2.707,8.25-5.8,12.762-9.024l4.77-3.481h0l4.125-2.836.129-.129c4-2.707,7.864-5.285,11.344-7.606l1.934-1.289v.129h0l.387-.258-.516-1.16,15.985,27.587,7.864,13.536,3.738,6.575a43.163,43.163,0,0,0,11.86,12.762,29.415,29.415,0,0,0,16.63,5.414c1.289,0,2.578-.129,3.867-.258s2.707-.516,4-.773,2.578-.516,3.867-.9c-27.329-7.09-59.815-60.2-59.815-60.2l5.285-9.153L105,131.743V115.5" transform="translate(15.741 32.785)" fill="#8099c1"/>
    <g id="Group_13" data-name="Group 13" transform="translate(1.957 181.157)">
      <g id="Group_12" data-name="Group 12" clip-path="url(#clip-path-2)">
        <path id="Path_509" data-name="Path 509" d="M52.88,155.649a2.83,2.83,0,1,1-1.031-3.867,2.943,2.943,0,0,1,1.031,3.867" transform="translate(11.245 -137.988)" fill="#fff"/>
        <path id="Path_510" data-name="Path 510" d="M42.88,152.655a2.8,2.8,0,0,1-3.867,1.031,2.911,2.911,0,0,1-1.031-3.867,2.8,2.8,0,0,1,3.867-1.031h0a2.766,2.766,0,0,1,1.031,3.867Z" transform="translate(8.354 -138.862)" fill="#fff"/>
        <path id="Path_511" data-name="Path 511" d="M43.48,163.149a2.83,2.83,0,1,1-1.031-3.867,2.8,2.8,0,0,1,1.031,3.867h0" transform="translate(8.528 -135.819)" fill="#fff"/>
        <path id="Path_512" data-name="Path 512" d="M36.487,168.955a2.83,2.83,0,1,1-1.031-3.867h0a2.8,2.8,0,0,1,1.031,3.867h0" transform="translate(6.497 -134.149)" fill="#fff"/>
        <path id="Path_513" data-name="Path 513" d="M31.787,157.555a2.83,2.83,0,1,1-1.031-3.867h0A3.005,3.005,0,0,1,31.787,157.555Z" transform="translate(5.139 -137.445)" fill="#fff"/>
        <path id="Path_514" data-name="Path 514" d="M25.787,165.755a2.83,2.83,0,1,1-1.031-3.867h0a2.911,2.911,0,0,1,1.031,3.867" transform="translate(3.404 -135.074)" fill="#fff"/>
        <path id="Path_515" data-name="Path 515" d="M18.087,161.755a2.83,2.83,0,1,1-1.031-3.867h0a2.766,2.766,0,0,1,1.031,3.867h0" transform="translate(1.177 -136.231)" fill="#fff"/>
        <path id="Path_516" data-name="Path 516" d="M8.087,163.849a2.878,2.878,0,0,1-3.867,1.031,2.766,2.766,0,0,1-1.031-3.867,2.878,2.878,0,0,1,3.867-1.031,2.822,2.822,0,0,1,1.031,3.867" transform="translate(-1.714 -135.617)" fill="#fff"/>
      </g>
    </g>
    <path id="Path_518" data-name="Path 518" d="M48.4,143.1v0" transform="translate(13.428 40.765)" fill="#b12831"/>
    <path id="Path_519" data-name="Path 519" d="M48.4,143.2h0l1.8,10.571a2.9,2.9,0,0,1,2.836,2.449l2.965-1.547-6.059-9.282L48.4,143.2" transform="translate(13.428 40.793)" fill="#eb7058"/>
    <path id="Path_520" data-name="Path 520" d="M49.6,144.9l5.93,9.411.516-.258L49.6,144.9" transform="translate(13.775 41.285)" fill="#997e87"/>
    <path id="Path_521" data-name="Path 521" d="M49.8,151.5l.645,3.61,2.192-1.16A2.9,2.9,0,0,0,49.8,151.5" transform="translate(13.833 43.193)" fill="#f5a996"/>
    <path id="Path_522" data-name="Path 522" d="M25,164.6l17.919,6.059a7.35,7.35,0,0,0,1.676.129h.645l-.129-.516h-.516a12.2,12.2,0,0,1-4.77-1.031L25,164.6" transform="translate(6.662 46.981)" fill="#f5a996"/>
    <path id="Path_523" data-name="Path 523" d="M44.854,170.594a5.971,5.971,0,0,1-4.254,1.934l.129.516a7.189,7.189,0,0,0,3.61-1.289l.516-1.16m2.32-13.794h0a29.48,29.48,0,0,1,0,8.25l.516-1.16a42.709,42.709,0,0,0-.516-7.09" transform="translate(11.173 44.726)" fill="#b12831"/>
    <path id="Path_524" data-name="Path 524" d="M46.852,162.3l-.516,1.16A10.678,10.678,0,0,1,44.016,169l-.516,1.031c1.676-1.16,3.094-3.481,3.352-7.735" transform="translate(12.011 46.316)" fill="#910b12"/>
    <path id="Path_525" data-name="Path 525" d="M8.675,163.375v.516l17.145,2.192a1.955,1.955,0,0,1,.387-1.676l.129-.129-17.661-.9M2.1,162.988l1.031.129v-.129H2.1M58.306,156.8S55.6,168.015,47.348,168.015a11.052,11.052,0,0,1-3.481-.645h0a2.888,2.888,0,0,1,1.16,3.738l-5.285-1.676a3.028,3.028,0,0,1,2.32-2.449l-10.829-2.192a2.2,2.2,0,0,1,0,1.8h.387l14.825,4.77a12.2,12.2,0,0,0,4.77,1.031h.516a5.971,5.971,0,0,0,4.254-1.934,9.721,9.721,0,0,0,2.32-5.543,28.57,28.57,0,0,0,0-8.121h0" transform="translate(0.041 44.726)" fill="#eb7058"/>
    <path id="Path_526" data-name="Path 526" d="M33.649,164.8a2.876,2.876,0,0,0-2.449,2.32l5.414,1.676a2.929,2.929,0,0,0-1.16-3.738h0l-1.8-.258" transform="translate(8.455 47.039)" fill="#f5a996"/>
    <path id="Path_527" data-name="Path 527" d="M20.916,162.5l-.129.129A3.97,3.97,0,0,0,20.4,164.3l5.414.645a2.2,2.2,0,0,0,0-1.8l-2.836-.516-2.063-.129" transform="translate(5.332 46.374)" fill="#f5a996"/>
    <path id="Path_528" data-name="Path 528" d="M2.8,161.6h0l5.543.773v-.516L2.8,161.6" transform="translate(0.244 46.113)" fill="#f5a996"/>
    <path id="Path_529" data-name="Path 529" d="M80.887,138.5l-.387.258,4.254,2.32v.9l.9-.516-4.77-2.965" transform="translate(22.709 39.435)" fill="#760710"/>
    <path id="Path_530" data-name="Path 530" d="M84.4,138.7,67,150.818l2.578,1.16,10.442-5.414a9.735,9.735,0,0,1,1.8-1.418,16.49,16.49,0,0,1,6.832-3.094h.129v-.9L84.4,138.7" transform="translate(18.806 39.492)" fill="#97101e"/>
    <path id="Path_531" data-name="Path 531" d="M70.194,148.1,56.4,157.768l16.243-8.508-2.449-1.16" transform="translate(15.741 42.21)" fill="#7c040b"/>
    <path id="Path_532" data-name="Path 532" d="M85.637,141.2a17.267,17.267,0,0,0-6.832,3.094,22.039,22.039,0,0,0-1.8,1.418l8.637-4.512" transform="translate(21.697 40.215)" fill="#b82536"/>
    <path id="Path_533" data-name="Path 533" d="M80.558,138.4l-.258.258.258.129.258-.258-.258-.129" transform="translate(22.651 39.406)" fill="#5f060d"/>
    <path id="Path_534" data-name="Path 534" d="M84.174,138.6l-4.641,3.223L66.9,150.847l.129.129,17.4-12.118-.258-.258" transform="translate(18.777 39.464)" fill="#790d19"/>
    <path id="Path_535" data-name="Path 535" d="M69.936,148.1,56.4,157.768h0L70.194,148.1h-.258" transform="translate(15.741 42.21)" fill="#630309"/>
    <path id="Path_536" data-name="Path 536" d="M56.4,160.573h0M87.468,138.4l-4.77,3.481,4.641-3.223h0l.129-.258h0" transform="translate(15.741 39.406)" fill="#692946"/>
    <path id="Path_537" data-name="Path 537" d="M169.906,58.82a7.922,7.922,0,0,0,3.867.645,9.374,9.374,0,0,0,7.993-6.961c-.129-.258,1.16,3.223-3.352,6.961C173.129,62.687,169.52,58.691,169.906,58.82Z" transform="translate(48.55 14.567)" fill="#e18b96"/>
    <path id="Path_538" data-name="Path 538" d="M186.779,74.342c-.258-5.672-.773-10.442-.773-10.442A31.224,31.224,0,0,1,167.7,67.381l1.031,4.9a7.581,7.581,0,0,0,3.223,4.9C175.435,79.756,180.849,81.045,186.779,74.342Z" transform="translate(47.921 17.866)" fill="#ffebd0"/>
    <path id="Path_539" data-name="Path 539" d="M163,68.229a21.679,21.679,0,0,0,3.094,8.766,13.658,13.658,0,0,0,5.8,5.028,18.389,18.389,0,0,0,7.477,1.418h1.418c5.672-.258,10.829-4.254,13.536-9.024l-1.16-.645c-2.578,4.383-7.348,8.121-12.376,8.379H179.5a17.866,17.866,0,0,1-6.832-1.289,12,12,0,0,1-5.285-4.512,18.555,18.555,0,0,1-2.836-8.25L163,68.229Z" transform="translate(46.562 19.08)" fill="#084eb2"/>
    <path id="Path_540" data-name="Path 540" d="M119.052,72.366c-.258-1.547-.387-3.094-.645-4.641-.129-.645.129-.9.773-1.031s1.676-.258,2.449-.387c.516-.129.773.129.9.645.387,3.094.9,6.188,1.289,9.282a2.169,2.169,0,0,1-1.547,2.578h-.258a2.054,2.054,0,0,1-2.32-1.8v-.129Z" transform="translate(33.659 18.552)" fill="#fdbd6d"/>
    <path id="Path_541" data-name="Path 541" d="M116.233,82.493a2.031,2.031,0,0,1-1.676,2.32,1.82,1.82,0,0,1-1.16-.129c-2.32-.9-4.512-1.8-6.7-2.707a14.322,14.322,0,0,1-2.063-.9c-.645-.387-.645-.516-.516-1.031.387-.9.645-1.676,1.031-2.449.129-.258.387-.516.645-.387.129,0,.129,0,.129.129,3.094,1.289,6.059,2.449,9.024,3.738A1.64,1.64,0,0,1,116.233,82.493Z" transform="translate(29.517 21.704)" fill="#fdbd6d"/>
    <path id="Path_542" data-name="Path 542" d="M130.007,80.925a2.138,2.138,0,0,1,.773-2.063c2.449-1.934,5.028-3.867,7.477-5.8.387-.387.773-.387,1.16.129.516.645,1.031,1.418,1.547,2.063a.794.794,0,0,1,.129.9.45.45,0,0,1-.258.129c-2.578,1.934-5.028,4-7.606,5.93a2.165,2.165,0,0,1-2.836-.258A8.879,8.879,0,0,1,130.007,80.925Z" transform="translate(37.013 20.435)" fill="#fdbd6d"/>
    <path id="Path_543" data-name="Path 543" d="M119.312,78.581a2.088,2.088,0,0,1-1.289,2.192,2.023,2.023,0,0,1-2.449-.645l-3.094-3.867c-1.031-1.289-1.8-2.32-2.707-3.481-.387-.516-.516-.9.129-1.289a20.314,20.314,0,0,0,1.934-1.547.623.623,0,0,1,.9,0l.129.129c1.934,2.578,3.867,5.028,5.8,7.477A2.28,2.28,0,0,1,119.312,78.581Z" transform="translate(31.079 19.557)" fill="#fdbd6d"/>
    <path id="Path_544" data-name="Path 544" d="M127.761,79.518a1.979,1.979,0,0,1-2.449-1.547,2.228,2.228,0,0,1,.129-1.289c.9-2.192,1.8-4.254,2.578-6.446.258-.773.645-1.547.9-2.32.129-.516.516-.645,1.031-.387L132.4,68.56c.516.129.516.516.387.9-1.16,2.965-2.449,5.93-3.61,8.895A2.157,2.157,0,0,1,127.761,79.518Z" transform="translate(35.65 18.878)" fill="#fdbd6d"/>
    <path id="Path_545" data-name="Path 545" d="M109,58.887h0a4.861,4.861,0,0,1,.9,2.707h.645a5.245,5.245,0,0,0-1.031-3.094l-.516.387" transform="translate(30.949 16.305)" fill="#1b1934"/>
    <path id="Path_546" data-name="Path 546" d="M107.5,60.016h0a6.178,6.178,0,0,1,.9,2.578h.645a5.245,5.245,0,0,0-1.031-3.094l-.516.516" transform="translate(30.515 16.594)" fill="#1b1934"/>
    <path id="Path_547" data-name="Path 547" d="M105.7,60.287h0a6.131,6.131,0,0,1,.9,2.707h.645a6.618,6.618,0,0,0-.9-3.094l-.645.387" transform="translate(29.995 16.709)" fill="#1b1934"/>
    <path id="Path_548" data-name="Path 548" d="M177.911,234.99l-1.031-13.665c-4.125-.773-7.219-2.32-8.121-4.125H168.5l.9,15.856c.258,5.8,3.61,9.8,8.508,11.215a24.212,24.212,0,0,0,7.477.773A11.812,11.812,0,0,1,177.911,234.99Z" transform="translate(48.152 62.189)" fill="#729cd3"/>
    <path id="Path_549" data-name="Path 549" d="M53.3,35.595c-1.289,4-1.031,8.766-.258,13.536V47.841A38.966,38.966,0,0,1,53.3,35.595M57.041,27.6c-3.094,3.738-3.867,5.414-3.094,5.672a20.973,20.973,0,0,1,1.418-2.965c.516-.9,1.16-1.8,1.676-2.707M79.343,16c-12.891,1.031-18.434,6.7-20.11,8.895A28.258,28.258,0,0,1,72.9,17.289h-.258A38.51,38.51,0,0,1,79.343,16" transform="translate(14.584 4.017)" fill="#a2a2af"/>
    <path id="Path_550" data-name="Path 550" d="M53.4,44.4c.516,2.836,1.16,5.543,1.676,7.735h0c-.387-1.934-.9-4.383-1.418-7.09A.985.985,0,0,1,53.4,44.4" transform="translate(14.874 12.228)" fill="#3c3c55"/>
    <path id="Path_551" data-name="Path 551" d="M54.7,50.4h0c0,.258.129.387.129.645h0A5.583,5.583,0,0,1,54.7,50.4" transform="translate(15.249 13.963)" fill="#36364e"/>
    <path id="Path_552" data-name="Path 552" d="M110.289,62.085h0A5.047,5.047,0,0,1,109,63.117h0a9.031,9.031,0,0,0,1.289-1.031m1.16-5.285h0a6.835,6.835,0,0,1-.9,4.77h0a6.835,6.835,0,0,0,.9-4.77h0" transform="translate(30.949 15.813)" fill="#753248"/>
    <path id="Path_553" data-name="Path 553" d="M79.061,55.166,61.529,56.455H61.4l17.661-1.289.129.129a.126.126,0,0,0-.129-.129M103.168,46.4h0l8.895,8.895L103.168,46.4m.516,0h0" transform="translate(17.187 12.806)" fill="#662739"/>
    <path id="Path_554" data-name="Path 554" d="M54.8,50.9h0v.258h0V50.9" transform="translate(15.278 14.107)" fill="#32283b"/>
    <path id="Path_555" data-name="Path 555" d="M54.9,51.3h0v.129h0V51.3" transform="translate(15.307 14.223)" fill="#6a3a52"/>
    <path id="Path_556" data-name="Path 556" d="M54.8,51.1h0v.258h0V51.1" transform="translate(15.278 14.165)" fill="#292535"/>
    <path id="Path_557" data-name="Path 557" d="M54.9,51.5h0v.258a3.974,3.974,0,0,0,3.352,3.61h.129l4.77-.387h.129l-4.383.258h-.258a3.882,3.882,0,0,1-3.61-3.61c-.129,0-.129,0-.129-.129" transform="translate(15.307 14.281)" fill="#562637"/>
    <path id="Path_558" data-name="Path 558" d="M108.645,62.087h0c-.258.129-.387.129-.645.258a.985.985,0,0,1,.645-.258m.387-.258-.129.129h0l.129-.129m.258-.129-.129.129.129-.129h0" transform="translate(30.66 17.23)" fill="#662739"/>
    <path id="Path_559" data-name="Path 559" d="M99.085,43.6c-2.192,0-3.867.773-4.254,3.61H93.8l8.895,8.895,2.578,7.606a5.907,5.907,0,0,0,4.77,3.867,4.8,4.8,0,0,0-.9-2.578h0l.645-.387a5.245,5.245,0,0,1,1.031,3.094,4.634,4.634,0,0,0,1.418-.258c.258,0,.387-.129.645-.258h-.387a4.8,4.8,0,0,0-.9-2.578h0l.516-.387a6.3,6.3,0,0,1,1.031,2.965l.129-.129h0l.129-.129a5.047,5.047,0,0,0,1.289-1.031h-.258a5.631,5.631,0,0,0-.9-2.707h0l.516-.387a6.254,6.254,0,0,1,1.031,2.707,6.835,6.835,0,0,0,.9-4.77h0l-6.059-11.731a5.065,5.065,0,0,1-1.934-3.61c-1.547-.516-3.223-.9-4.641-1.289-1.418-.258-2.836-.387-4.254-.516" transform="translate(26.554 11.997)" fill="#57576f"/>
    <path id="Path_560" data-name="Path 560" d="M52.9,47.452v1.289a29.975,29.975,0,0,0,.645,3.61c.129.258.129.387.258.645-.387-1.676-.645-3.61-.9-5.543M75.718,16.9H72.753a27.478,27.478,0,0,0-13.665,7.735c-.258.258-.387.645-.645.9-.516.645-1.031,1.16-1.547,1.8a30.84,30.84,0,0,0-1.676,2.707c2.32-3.481,6.317-5.8,12.891-5.8a38.4,38.4,0,0,1,9.411,1.16,17.221,17.221,0,0,1,4.9,11.215,5.069,5.069,0,0,1,.258.773,24.178,24.178,0,0,1,11.473,3.352c4.383,2.836,5.8,7.993,11.215,13.794h0l.258.258h-.258l.129.129h1.031c.258-2.707,1.934-3.61,4.254-3.61a21.239,21.239,0,0,1,4.125.516,43.032,43.032,0,0,1,4.641,1.289v-.387c0-.129-.129-.516-.129-.645a12.8,12.8,0,0,1-4.383-3.481l-1.16-1.934-.773-.516c-8.766-3.867-7.477-18.434-7.477-18.434a28.893,28.893,0,0,1-4.383-3.481,9.349,9.349,0,0,1-4.512-5.156l-.387.129L86.8,17.673A109.312,109.312,0,0,0,75.718,16.9" transform="translate(14.729 4.277)" fill="#57576f"/>
    <path id="Path_561" data-name="Path 561" d="M79.315,15.9c-1.547,0-3.094,0-4.512.129a40.968,40.968,0,0,0-6.7,1.289h3.223a64.315,64.315,0,0,1,11.086.9l9.54,1.418.387-.129a.45.45,0,0,0-.129-.258c-.516-.773-.9-1.547-1.418-2.32A88.19,88.19,0,0,0,79.315,15.9" transform="translate(19.124 3.988)" fill="#454560"/>
    <path id="Path_562" data-name="Path 562" d="M98.66,50.174h0M76.1,32.9h0L98.789,50.045h0c-5.285-5.8-6.7-11.086-11.215-13.794A27.492,27.492,0,0,0,76.1,32.9" transform="translate(21.437 8.903)" fill="#454560"/>
    <path id="Path_563" data-name="Path 563" d="M68.192,22.7c-6.575,0-10.571,2.32-12.891,5.8a12.547,12.547,0,0,0-1.418,2.965h.258a15.725,15.725,0,0,0-.9,2.192A38.966,38.966,0,0,0,52.981,45.9c.258,1.934.516,3.738.9,5.543.516,2.578,1.031,5.028,1.418,7.09,0,.258.129.387.129.645V59.7h0v.387a4.238,4.238,0,0,0,3.61,3.61H59.3l4.512-.258,17.532-1.289c-.129-.258-.258-.773-.516-1.547-1.031-3.352-1.934-3.61-3.61-3.867L70.9,54.412c9.926-20.755,1.547-28.876,1.547-28.876a23.644,23.644,0,0,0-4.125-.9c.516,0,.9-.129,1.418-.129,7.864,0,11.731,7.864,12.891,10.442a17.5,17.5,0,0,0-4.9-11.215,48.008,48.008,0,0,0-9.54-1.031" transform="translate(14.648 5.954)" fill="#57576f"/>
    <path id="Path_564" data-name="Path 564" d="M104.5,44.2c0,.258.129.387.129.645V44.2H104.5" transform="translate(29.648 12.17)" fill="#89899b"/>
    <path id="Path_565" data-name="Path 565" d="M86.8,18.5c0,.129,0,.258.129.258a9.349,9.349,0,0,0,4.512,5.156A30.405,30.405,0,0,1,86.8,18.5" transform="translate(24.53 4.74)" fill="#57576f"/>
    <path id="Path_566" data-name="Path 566" d="M109.516,58.5l-.516.387h0a4.861,4.861,0,0,1,.9,2.707h.258c.129-.129.258-.258.258-.387h0a4.861,4.861,0,0,0-.9-2.707" transform="translate(30.949 16.305)" fill="#302f4a"/>
    <path id="Path_567" data-name="Path 567" d="M108.016,59.6l-.516.387h0a6.178,6.178,0,0,1,.9,2.578h.387l.258-.129h0a6.8,6.8,0,0,0-1.031-2.836" transform="translate(30.515 16.623)" fill="#302f4a"/>
    <path id="Path_568" data-name="Path 568" d="M106.216,59.9l-.516.387h0a6.178,6.178,0,0,1,.9,2.578h.645a6.3,6.3,0,0,0-1.031-2.965" transform="translate(29.995 16.709)" fill="#302f4a"/>
    <path id="Path_569" data-name="Path 569" d="M184.13,199.772l-1.934.129a7.17,7.17,0,0,1-.773,2.707,32.748,32.748,0,0,0-2.32,5.285,6.285,6.285,0,0,0,0,3.094,4.819,4.819,0,0,0,1.547,2.578,6.019,6.019,0,0,1,0-5.156c.645-1.547,1.8-3.094,2.578-4.9a7.882,7.882,0,0,0,.9-3.094c0-.258,0-.516,0-.645M178.2,194.1c.645.645,1.418,1.289,2.063,1.934l.9-.129a3.607,3.607,0,0,0,.773-.129,2.807,2.807,0,0,0-1.031-.645A23.243,23.243,0,0,0,178.2,194.1" transform="translate(50.956 55.51)" fill="#debecf"/>
    <path id="Path_570" data-name="Path 570" d="M181.376,195.5a1.871,1.871,0,0,0-.773.129l-.9.129a7.864,7.864,0,0,1,1.547,2.063,2.878,2.878,0,0,1,.387,1.8l1.934-.129a4.2,4.2,0,0,0-1.031-2.449,2.4,2.4,0,0,0-1.16-1.547" transform="translate(51.39 55.915)" fill="#d9b8c8"/>
    <path id="Path_571" data-name="Path 571" d="M181.219,31.7s1.031,2.449,5.285,2.836a10.694,10.694,0,0,0,7.348-2.32,21.7,21.7,0,0,0-.387,11.473l-6.059,4.77s-6.7-2.192-7.09-8.379S181.219,31.7,181.219,31.7Z" transform="translate(51.547 8.556)" fill="#f5a996"/>
    <path id="Path_572" data-name="Path 572" d="M188.182,15.2s-3.352,3.61-5.543,4.512-10.184-.645-12.633.387S162.4,27.06,162.4,27.06s5.156-7.864,7.348-8.895,7.864.9,11.989.129A14.322,14.322,0,0,0,188.182,15.2Z" transform="translate(46.388 3.786)" fill="#f5a996"/>
    <path id="Path_573" data-name="Path 573" d="M195.194,14.8s-7.348,2.965-9.024,6.446,0,5.414-1.031,6.575-3.738,1.8-3.738,1.8,2.965-2.32,2.707-3.738a8.868,8.868,0,0,1,1.676-7.993C188.748,14.416,195.194,14.8,195.194,14.8Z" transform="translate(51.882 3.667)" fill="#f5a996"/>
    <path id="Path_574" data-name="Path 574" d="M173.014,66.689,167.6,66.3a31.194,31.194,0,0,0,.516,3.094h.129l.773,3.352a6.379,6.379,0,0,0,1.8,2.965,18,18,0,0,1,3.094-6.059l7.735-4.254Z" transform="translate(47.892 18.3)" fill="#ffa488"/>
    <path id="Path_575" data-name="Path 575" d="M125.355,111.846,117.62,88a3.436,3.436,0,0,1,2.192-4l12.118-2.192a3.063,3.063,0,0,1,3.481,2.063l11.86,37.256a2.777,2.777,0,0,1-1.547,3.481c-.129,0-.258.129-.516.129L130.9,126.156a2.783,2.783,0,0,1-2.707-2.063l-2.965-12.118.129-.129" transform="translate(33.415 23.031)" fill="#8f90a0"/>
    <path id="Path_576" data-name="Path 576" d="M145.059,121.938,132.941,83.651a2.121,2.121,0,0,0-2.32-1.547L116.57,84.682a2.145,2.145,0,0,0-1.547,2.707v.258l7.864,24.364v.129l2.449,10.442a10.889,10.889,0,0,0,.645,2.191,3.293,3.293,0,0,0,3.352,1.8l13.923-1.547a2.281,2.281,0,0,0,1.8-2.578c.129-.258,0-.387,0-.516" transform="translate(32.661 23.124)" fill="#454560"/>
    <path id="Path_577" data-name="Path 577" d="M129.84,84.7l-3.352,32.873-7.606-23.591s-2.836-7.219,0-7.219Z" transform="translate(33.442 23.88)" fill="#1b1934"/>
    <path id="Path_578" data-name="Path 578" d="M144.347,106.535l-14.567.645-11.344-2.707a1.187,1.187,0,0,0-1.418.9c-.258,1.16,0,2.707,2.707,3.223,0,0-4.641,2.192,2.707,4.512l3.61,2.063s-.258,3.223,5.028,4.77l6.446,1.289a5.732,5.732,0,0,0,2.965-.129l4.512-1.289,12.891,9.668,4.9-11.86-5.414-4L149.632,99.7l-7.993-.9,2.449,7.735" transform="translate(33.244 27.956)" fill="#ffebd0"/>
    <path id="Path_579" data-name="Path 579" d="M119.145,106.5l6.832,1.418s10.184.387,11.989-.516a32.34,32.34,0,0,1-10.442,1.8l-9.024-2.192Z" transform="translate(33.696 30.183)" fill="#ffa488"/>
    <path id="Path_580" data-name="Path 580" d="M121.4,110.1s6.446,3.481,11.989,1.418l5.414-1.289-6.961.773-4.383-.129Z" transform="translate(34.534 31.223)" fill="#ffa488"/>
    <path id="Path_581" data-name="Path 581" d="M124.5,113.1s7.348,3.094,13.665.773l-3.481.129-6.059-.773Z" transform="translate(35.43 32.091)" fill="#ffa488"/>
    <path id="Path_582" data-name="Path 582" d="M154.278,123.4a3.3,3.3,0,0,1-2.578,3.223,4.78,4.78,0,0,0,1.8-.516,3.033,3.033,0,0,0,.645-2.063l.258.258a2.516,2.516,0,0,0-.129-.9" transform="translate(43.295 35.069)" fill="#b595a3"/>
    <path id="Path_583" data-name="Path 583" d="M138.345,115.6H137.7l18.048,13.278h0a3.3,3.3,0,0,0,2.578-3.223,2.807,2.807,0,0,0-.645-1.031l-4.254-3.223-1.418,3.352L139.892,115.6h-1.547" transform="translate(39.247 32.814)" fill="#ffb99d"/>
    <path id="Path_584" data-name="Path 584" d="M139.5,115.6l12.118,9.153,1.418-3.352-1.934-1.418a23.225,23.225,0,0,0-11.6-4.383" transform="translate(39.767 32.814)" fill="#ffb99d"/>
    <path id="Path_585" data-name="Path 585" d="M179.1,146.3l1.8.516a6.263,6.263,0,0,0-1.8-.516" transform="translate(51.217 41.69)" fill="#8f2e44"/>
    <path id="Path_586" data-name="Path 586" d="M155.114,124.2a1.83,1.83,0,0,1-1.031,1.8,3.035,3.035,0,0,1-2.707,1.031,7.545,7.545,0,0,1-1.676-.258l24.236,22.3,13.536,3.61c.773.258,1.418.387,1.8.516h0l-14.309-7.219-6.188-7.864L155.114,124.2" transform="translate(42.716 35.3)" fill="#0661ca"/>
    <path id="Path_587" data-name="Path 587" d="M153.845,123.9a3.9,3.9,0,0,1-.645,2.063,1.916,1.916,0,0,0,1.031-1.8l-.387-.258" transform="translate(43.728 35.213)" fill="#9c8191"/>
  </g>
</svg>
