<svg id="web-bg-main" xmlns="http://www.w3.org/2000/svg" xmlns:xlink="http://www.w3.org/1999/xlink" width="1619.917" height="1080" viewBox="0 0 1619.917 1080">
  <defs>
    <linearGradient id="linear-gradient" x1="1.015" y1="0.037" x2="0.033" y2="0.919" gradientUnits="objectBoundingBox">
      <stop offset="0" stop-color="#6cc5e4"/>
      <stop offset="1" stop-color="#00acd3"/>
    </linearGradient>
  </defs>
  <g id="Layer_2" data-name="Layer 2">
    <g id="BACKGROUND_2" data-name="BACKGROUND 2">
      <rect id="Rectangle_5" data-name="Rectangle 5" width="1619" height="1080" transform="translate(0.472)" fill="url(#linear-gradient)"/>
      <path id="Path_53" data-name="Path 53" d="M468.557,67.216,628.389,252.211l100.262-62.248L494.411,52.529a4.32,4.32,0,0,0-3.823-.3l-20.325,7.992a4.32,4.32,0,0,0-1.706,7Z" transform="translate(542.142 60.218)" fill="#0070a6"/>
      <path id="Path_54" data-name="Path 54" d="M470.773,55.68l-.475.173a4.32,4.32,0,0,0-1.706,6.955L628.423,247.8l100.262-62.248-26.847-15.746C657.474,211.883,570.128,178.859,470.773,55.68Z" transform="translate(542.216 64.583)" fill="#155a88"/>
      <path id="Path_55" data-name="Path 55" d="M615.248,435.025l-58.6-237.35L665.4,151.82,642.138,422.389a4.32,4.32,0,0,1-1.965,3.3l-18.251,11.944a4.32,4.32,0,0,1-6.674-2.613Z" transform="translate(645.653 176.095)" fill="#0070a6"/>
      <path id="Path_56" data-name="Path 56" d="M622.332,437.314l-.41.259a4.32,4.32,0,0,1-6.674-2.613l-58.6-237.286L665.4,151.82l-2.678,30.994C602.893,194.715,579.307,284.977,622.332,437.314Z" transform="translate(645.653 176.095)" fill="#155a88"/>
      <path id="Path_57" data-name="Path 57" d="M470.044,315.506c121.364-78.361,291.2-190.394,333.833-209.9s94.063-12.29,103.243,5.464-28.943,71.276-60.477,85.769-330.463,136.267-360.7,149.4S434.946,339.718,470.044,315.506Z" transform="translate(523.894 108.999)" fill="#fff"/>
      <path id="Path_58" data-name="Path 58" d="M707.95,224.74c-131.473,58.317-222.771,101.882-255.58,102.9-4.32,13.348,12.225,20.3,33.608,11.08,30.433-13.132,329.34-134.864,360.7-149.4s69.57-68.015,60.477-85.769A17.479,17.479,0,0,0,905,100.46C889.64,136.185,795.469,185.862,707.95,224.74Z" transform="translate(523.9 116.523)" fill="#ededed"/>
      <path id="Path_59" data-name="Path 59" d="M437.7,164.165l50.153,79.916,44.494-28.489-82.076-56.654a1.771,1.771,0,0,0-1.512-.238l-10.108,2.894a1.749,1.749,0,0,0-.95,2.57Z" transform="translate(507.385 183.988)" fill="#056798"/>
      <path id="Path_60" data-name="Path 60" d="M502.6,306.8,466.38,219.648l49.008-19.828-1.21,99.744a1.728,1.728,0,0,1-.648,1.361l-8.164,6.48a1.793,1.793,0,0,1-2.765-.6Z" transform="translate(540.949 231.769)" fill="#056798"/>
      <path id="Path_61" data-name="Path 61" d="M648.209,139.746a62.311,62.311,0,0,0,12.333-24.256L647,122.445A61.711,61.711,0,0,1,648.209,139.746Z" transform="translate(750.449 133.956)" fill="#8cd3f6"/>
      <path id="Path_62" data-name="Path 62" d="M648.875,127.373l15.832-8.186a27.9,27.9,0,0,0-2.16-12.657l-18.338,9.46a65.89,65.89,0,0,1,4.665,11.383Z" transform="translate(747.213 123.563)" fill="#8cd3f6"/>
      <path id="Path_63" data-name="Path 63" d="M632.82,98.278a72.653,72.653,0,0,1,11.361,9.655l13.132-6.8a70.434,70.434,0,0,0-24.493-2.851Z" transform="translate(734.002 113.845)" fill="#8cd3f6"/>
      <path id="Path_64" data-name="Path 64" d="M639.87,109.038a80.44,80.44,0,0,1,6.48,8.812l18.273-9.46a27.818,27.818,0,0,0-8.964-7.56Z" transform="translate(742.179 116.952)" fill="#8cd3f6"/>
      <path id="Path_65" data-name="Path 65" d="M578.55,126.508l5.119,9.914,11.966-7.214L590.321,119.1C586.52,121.5,582.589,123.981,578.55,126.508Z" transform="translate(671.054 138.143)" fill="#8cd3f6"/>
      <path id="Path_66" data-name="Path 66" d="M571.62,130.913l4.968,9.612,11.944-7.214-5.1-9.871Z" transform="translate(663.016 143.177)" fill="#8cd3f6"/>
      <path id="Path_67" data-name="Path 67" d="M516.53,166.588l2.981,5.767,11.966-7.214-3.132-6.22Z" transform="translate(599.118 184.33)" fill="#8cd3f6"/>
      <path id="Path_68" data-name="Path 68" d="M523.4,162.106l3.261,6.328,11.966-7.214-3.5-6.76Z" transform="translate(607.086 179.157)" fill="#8cd3f6"/>
      <path id="Path_69" data-name="Path 69" d="M544,148.651l4.1,7.905,11.944-7.214-4.32-8.272Z" transform="translate(630.98 163.626)" fill="#8cd3f6"/>
      <path id="Path_70" data-name="Path 70" d="M530.27,157.581l3.564,6.868,11.944-7.214L542,150Z" transform="translate(615.055 173.984)" fill="#8cd3f6"/>
      <path id="Path_71" data-name="Path 71" d="M550.91,144.211l4.32,8.38,11.944-7.214-4.514-8.748Z" transform="translate(638.995 158.476)" fill="#8cd3f6"/>
      <path id="Path_72" data-name="Path 72" d="M557.81,139.758l4.557,8.812,11.944-7.214-4.73-9.136Z" transform="translate(646.998 153.361)" fill="#8cd3f6"/>
      <path id="Path_73" data-name="Path 73" d="M564.71,135.315l4.773,9.244,11.944-7.214L576.5,127.82Z" transform="translate(655.001 148.257)" fill="#8cd3f6"/>
      <path id="Path_74" data-name="Path 74" d="M537.14,153.094l3.845,7.387,11.944-7.192-4.039-7.819Z" transform="translate(623.023 168.729)" fill="#8cd3f6"/>
      <path id="Path_75" data-name="Path 75" d="M509.67,171.129l2.678,5.162,11.966-7.214L521.4,163.44Z" transform="translate(591.161 189.572)" fill="#8cd3f6"/>
      <path id="Path_76" data-name="Path 76" d="M599.45,113.451l5.335,10.324,11.966-7.214L611.5,106.41C607.852,108.505,603.813,110.859,599.45,113.451Z" transform="translate(695.296 123.424)" fill="#8cd3f6"/>
      <path id="Path_77" data-name="Path 77" d="M616.921,103c-2.808,1.4-6.328,3.283-10.411,5.594l5.205,10.065,10.152-6.113Z" transform="translate(703.485 119.469)" fill="#8cd3f6"/>
      <path id="Path_78" data-name="Path 78" d="M592.45,117.786l5.335,10.3,11.966-7.214-5.313-10.324Z" transform="translate(687.177 128.226)" fill="#8cd3f6"/>
      <path id="Path_79" data-name="Path 79" d="M502.82,175.6l2.354,4.557,11.966-7.192-2.613-5.054Z" transform="translate(583.216 194.757)" fill="#8cd3f6"/>
      <path id="Path_80" data-name="Path 80" d="M496.5,179.4l2.16,3.909,10.691-6.48L507.04,172.4Z" transform="translate(575.885 199.965)" fill="#8cd3f6"/>
      <path id="Path_81" data-name="Path 81" d="M585.49,122.134l5.248,10.173,11.966-7.214-5.313-10.3Z" transform="translate(679.104 133.144)" fill="#8cd3f6"/>
      <path id="Path_82" data-name="Path 82" d="M598.609,164.328l-5.119-9.935,12.786-5.573,5.227,10.108Z" transform="translate(688.383 172.615)" fill="#8cd3f6"/>
      <path id="Path_83" data-name="Path 83" d="M590.958,167.284l-4.968-9.59L598.8,152.1l5.1,9.849Q597.545,164.606,590.958,167.284Z" transform="translate(679.684 176.419)" fill="#8cd3f6"/>
      <path id="Path_84" data-name="Path 84" d="M529.031,189.641l-2.981-5.767,12.808-5.594,3.2,6.221Z" transform="translate(610.16 206.785)" fill="#8cd3f6"/>
      <path id="Path_85" data-name="Path 85" d="M536.811,186.933,533.55,180.6l12.787-5.594,3.5,6.76Z" transform="translate(618.859 202.992)" fill="#8cd3f6"/>
      <path id="Path_86" data-name="Path 86" d="M560.124,178.689l-4.1-7.905,12.808-5.594,4.32,8.294Z" transform="translate(644.922 191.602)" fill="#8cd3f6"/>
      <path id="Path_87" data-name="Path 87" d="M544.629,184.2,541,177.312l12.786-5.573,3.78,7.279Z" transform="translate(627.5 199.2)" fill="#8cd3f6"/>
      <path id="Path_88" data-name="Path 88" d="M567.84,175.895l-4.32-8.38,12.787-5.594,4.514,8.64Z" transform="translate(653.621 187.809)" fill="#8cd3f6"/>
      <path id="Path_89" data-name="Path 89" d="M575.579,173.056,571,164.223l12.786-5.573,4.73,9.136Z" transform="translate(662.297 184.017)" fill="#8cd3f6"/>
      <path id="Path_90" data-name="Path 90" d="M583.273,170.162,578.5,161l12.786-5.594,4.946,9.525Z" transform="translate(670.996 180.258)" fill="#8cd3f6"/>
      <path id="Path_91" data-name="Path 91" d="M552.353,181.463l-3.823-7.408,12.786-5.594,4.039,7.819Z" transform="translate(636.234 195.395)" fill="#8cd3f6"/>
      <path id="Path_92" data-name="Path 92" d="M521.238,192.316l-2.678-5.184,12.787-5.573,2.916,5.637Z" transform="translate(601.473 210.59)" fill="#8cd3f6"/>
      <path id="Path_93" data-name="Path 93" d="M621.27,154.928,616,144.6l12.786-5.594,5.249,10.151Q628.236,151.818,621.27,154.928Z" transform="translate(714.492 161.236)" fill="#8cd3f6"/>
      <path id="Path_94" data-name="Path 94" d="M639.227,145.677c-2.765,1.49-6.328,3.261-10.562,5.249L623.46,140.86l10.8-4.73Z" transform="translate(723.145 157.896)" fill="#8cd3f6"/>
      <path id="Path_95" data-name="Path 95" d="M613.8,158.177l-5.335-10.3,12.808-5.594,5.335,10.346Q620.587,155.283,613.8,158.177Z" transform="translate(705.758 165.029)" fill="#8cd3f6"/>
      <path id="Path_96" data-name="Path 96" d="M513.424,194.981l-2.354-4.557,12.787-5.594,2.614,5.054Z" transform="translate(592.785 214.382)" fill="#8cd3f6"/>
      <path id="Path_97" data-name="Path 97" d="M506.154,197.128l-1.944-4.039,11.426-4.989,2.289,4.449Z" transform="translate(584.828 218.175)" fill="#8cd3f6"/>
      <path id="Path_98" data-name="Path 98" d="M606.205,161.317,601,151.144l12.786-5.594,5.335,10.3Z" transform="translate(697.094 168.822)" fill="#8cd3f6"/>
      <path id="Path_99" data-name="Path 99" d="M443.8,159.29l-5.119,1.534a1.75,1.75,0,0,0-.993,2.635l50.153,79.916,44.537-28.554-9.46-6.652C499.788,228.838,461.32,207.823,443.8,159.29Z" transform="translate(507.347 184.759)" fill="#155a88"/>
      <path id="Path_100" data-name="Path 100" d="M509.47,304.207l-4.1,3.3a1.793,1.793,0,0,1-2.765-.713L466.38,219.648l49.008-19.828-.13,11.62C485,218.352,479.987,261.874,509.47,304.207Z" transform="translate(540.949 231.769)" fill="#155a88"/>
      <path id="Path_101" data-name="Path 101" d="M1550.5,866.461a27.539,27.539,0,0,0-51.837-1.21,44.991,44.991,0,0,0-80.3,39.288,728.121,728.121,0,0,1-187.176,8.424,94.258,94.258,0,0,0-133.136-107.325,7.293,7.293,0,0,0-.13-1.663,37.042,37.042,0,1,0-41.189,41.492,94.084,94.084,0,0,0-9.18,24.968A428.108,428.108,0,0,1,969.4,829.2a41.556,41.556,0,0,0-61.255-54.473c-24.9-30.044-40.8-64.192-44.947-101.8a46.582,46.582,0,0,0,7.43.648,45.984,45.984,0,0,0,4.471-91.752c1.145-24.623,32.528-71.492,80.693-117.066-135.879,45.142-237.8,58.468-282.384,42.507a42.01,42.01,0,1,0-69.116-15.854l-.518-.194a11.62,11.62,0,0,0-14.536,6.652A91.255,91.255,0,1,1,456.817,385.562a15.94,15.94,0,0,0,6.48-19.439l-.108-.259a43.2,43.2,0,0,0,24.342,7.452h1.858c2.484-.432,5.033-.756,7.581-.972a43.392,43.392,0,1,0-47.042-63.954C442.777,224.888,467.832,86.007,580.578,0H0V1079.945H1619.917V832.119a554.191,554.191,0,0,1-69.419,34.342ZM452.367,150.7a6.242,6.242,0,1,1-6.242,6.242A6.242,6.242,0,0,1,452.367,150.7Zm-34.99,17.5a31.254,31.254,0,1,1-31.254,31.254,31.254,31.254,0,0,1,31.254-31.254ZM373.207,65.553a8.4,8.4,0,1,1-8.4,8.4,8.4,8.4,0,0,1,8.4-8.4ZM306.013,327.331a16.783,16.783,0,1,1,11.881-4.908,16.8,16.8,0,0,1-11.881,4.908Zm66.352,64.624A43.759,43.759,0,1,1,416.124,348.2a43.759,43.759,0,0,1-43.759,43.759ZM616.13,546.97a13.758,13.758,0,1,1,13.758-13.758A13.758,13.758,0,0,1,616.13,546.97ZM961.713,891.689a13.78,13.78,0,0,1-7.732-2.354,43.738,43.738,0,1,1-1.922-21.6,13.931,13.931,0,1,1,9.655,23.975Zm50.455,69.116a48.823,48.823,0,1,0,.065-.086Zm424.764,58.036a259.015,259.015,0,1,0,.065-.086Zm85.013-70.65a8.64,8.64,0,1,1,8.64-8.64A8.64,8.64,0,0,1,1521.945,948.192Z" fill="#fff"/>
      <circle id="Ellipse_20" data-name="Ellipse 20" cx="49.181" cy="49.181" r="49.181" transform="translate(514 136.36) rotate(-45)" fill="#fff"/>
      <path id="Path_102" data-name="Path 102" d="M381.1,40.2A78.426,78.426,0,1,1,235.331,0H370.043A78.144,78.144,0,0,1,381.1,40.2Z" transform="translate(260.105)" fill="#fff"/>
      <path id="Path_103" data-name="Path 103" d="M250.306,80.238a14.428,14.428,0,1,0-14.428,14.428A14.428,14.428,0,0,0,250.306,80.238Z" transform="translate(256.858 76.332)" fill="#fff"/>
      <path id="Path_104" data-name="Path 104" d="M243.036,139.111A7.236,7.236,0,1,0,235.8,131.9a7.236,7.236,0,0,0,7.236,7.214Z" transform="translate(273.502 144.569)" fill="#fff"/>
      <path id="Path_105" data-name="Path 105" d="M335.55,229.029a8.64,8.64,0,1,0-8.64-8.64A8.64,8.64,0,0,0,335.55,229.029Z" transform="translate(379.18 245.607)" fill="#fff"/>
      <path id="Path_106" data-name="Path 106" d="M313.344,186.661a7.236,7.236,0,1,0-7.214-7.236,7.236,7.236,0,0,0,7.214,7.236Z" transform="translate(355.077 199.721)" fill="#fff"/>
      <circle id="Ellipse_21" data-name="Ellipse 21" cx="15.918" cy="15.918" r="15.918" transform="translate(788.489 467.4)" fill="#fff"/>
      <path id="Path_107" data-name="Path 107" d="M416.24,334.152a13.154,13.154,0,1,0,13.154-13.132,13.154,13.154,0,0,0-13.154,13.132Z" transform="translate(482.793 372.348)" fill="#fff"/>
      <path id="Path_108" data-name="Path 108" d="M456.288,360.419a6.48,6.48,0,1,0-4.651-1.859A6.48,6.48,0,0,0,456.288,360.419Z" transform="translate(521.602 403.016)" fill="#fff"/>
      <path id="Path_109" data-name="Path 109" d="M591.981,395.72a13.434,13.434,0,1,0-9.972-2.655A13.456,13.456,0,0,0,591.981,395.72Z" transform="translate(668.963 427.911)" fill="#fff"/>
      <path id="Path_110" data-name="Path 110" d="M713.163,417.688a26.653,26.653,0,1,0-29.872-22.981A26.653,26.653,0,0,0,713.163,417.688Z" transform="translate(792.28 422.898)" fill="#fff"/>
      <path id="Path_111" data-name="Path 111" d="M724.043,391.384a8.035,8.035,0,1,0-9.007-6.933A8.035,8.035,0,0,0,724.043,391.384Z" transform="translate(829.285 435.4)" fill="#fff"/>
      <path id="Path_112" data-name="Path 112" d="M234.191,172.37c-2.549.216-5.1.54-7.581.972a41.6,41.6,0,0,0,7.581-.972Z" transform="translate(262.843 199.93)" fill="#fff"/>
      <path id="Path_113" data-name="Path 113" d="M319.035,48.862a8.791,8.791,0,1,1-2.567-6.23,8.812,8.812,0,0,1,2.567,6.23Z" transform="translate(349.602 46.454)" fill="#fff"/>
    </g>
  </g>
</svg>
